<?xml version="1.0" encoding="utf-8" standalone="no"?>
<!DOCTYPE svg PUBLIC "-//W3C//DTD SVG 1.1//EN"
  "http://www.w3.org/Graphics/SVG/1.1/DTD/svg11.dtd">
<svg xmlns:xlink="http://www.w3.org/1999/xlink" width="578.774844pt" height="576.432187pt" viewBox="0 0 578.774844 576.432187" xmlns="http://www.w3.org/2000/svg" version="1.1">
 <metadata>
  <rdf:RDF xmlns:dc="http://purl.org/dc/elements/1.1/" xmlns:cc="http://creativecommons.org/ns#" xmlns:rdf="http://www.w3.org/1999/02/22-rdf-syntax-ns#">
   <cc:Work>
    <dc:type rdf:resource="http://purl.org/dc/dcmitype/StillImage"/>
    <dc:date>2022-07-14T12:39:12.623080</dc:date>
    <dc:format>image/svg+xml</dc:format>
    <dc:creator>
     <cc:Agent>
      <dc:title>Matplotlib v3.5.0, https://matplotlib.org/</dc:title>
     </cc:Agent>
    </dc:creator>
   </cc:Work>
  </rdf:RDF>
 </metadata>
 <defs>
  <style type="text/css">*{stroke-linejoin: round; stroke-linecap: butt}</style>
 </defs>
 <g id="figure_1">
  <g id="patch_1">
   <path d="M 0 576.432187 
L 578.774844 576.432187 
L 578.774844 0 
L 0 0 
z
" style="fill: #ffffff"/>
  </g>
  <g id="axes_1">
   <g id="patch_2">
    <path d="M 56.524844 133.8975 
L 571.574844 133.8975 
L 571.574844 14.1725 
L 56.524844 14.1725 
z
" style="fill: #ffffff"/>
   </g>
   <g id="matplotlib.axis_1">
    <g id="xtick_1">
     <g id="line2d_1">
      <defs>
       <path id="md582e387b2" d="M 0 0 
L 0 3.5 
" style="stroke: #000000; stroke-width: 0.8"/>
      </defs>
      <g>
       <use xlink:href="#md582e387b2" x="56.524844" y="133.8975" style="stroke: #000000; stroke-width: 0.8"/>
      </g>
     </g>
    </g>
    <g id="xtick_2">
     <g id="line2d_2">
      <g>
       <use xlink:href="#md582e387b2" x="123.343691" y="133.8975" style="stroke: #000000; stroke-width: 0.8"/>
      </g>
     </g>
    </g>
    <g id="xtick_3">
     <g id="line2d_3">
      <g>
       <use xlink:href="#md582e387b2" x="190.162539" y="133.8975" style="stroke: #000000; stroke-width: 0.8"/>
      </g>
     </g>
    </g>
    <g id="xtick_4">
     <g id="line2d_4">
      <g>
       <use xlink:href="#md582e387b2" x="256.981386" y="133.8975" style="stroke: #000000; stroke-width: 0.8"/>
      </g>
     </g>
    </g>
    <g id="xtick_5">
     <g id="line2d_5">
      <g>
       <use xlink:href="#md582e387b2" x="323.800234" y="133.8975" style="stroke: #000000; stroke-width: 0.8"/>
      </g>
     </g>
    </g>
    <g id="xtick_6">
     <g id="line2d_6">
      <g>
       <use xlink:href="#md582e387b2" x="390.619081" y="133.8975" style="stroke: #000000; stroke-width: 0.8"/>
      </g>
     </g>
    </g>
    <g id="xtick_7">
     <g id="line2d_7">
      <g>
       <use xlink:href="#md582e387b2" x="457.437928" y="133.8975" style="stroke: #000000; stroke-width: 0.8"/>
      </g>
     </g>
    </g>
    <g id="xtick_8">
     <g id="line2d_8">
      <g>
       <use xlink:href="#md582e387b2" x="524.256776" y="133.8975" style="stroke: #000000; stroke-width: 0.8"/>
      </g>
     </g>
    </g>
   </g>
   <g id="matplotlib.axis_2">
    <g id="ytick_1">
     <g id="line2d_9">
      <defs>
       <path id="mef86bbe14e" d="M 0 0 
L -3.5 0 
" style="stroke: #000000; stroke-width: 0.8"/>
      </defs>
      <g>
       <use xlink:href="#mef86bbe14e" x="56.524844" y="109.549623" style="stroke: #000000; stroke-width: 0.8"/>
      </g>
     </g>
     <g id="text_1">
      <!-- 0.0 -->
      <g transform="translate(32.031406 113.728763)scale(0.11 -0.11)">
       <defs>
        <path id="DejaVuSans-30" d="M 2034 4250 
Q 1547 4250 1301 3770 
Q 1056 3291 1056 2328 
Q 1056 1369 1301 889 
Q 1547 409 2034 409 
Q 2525 409 2770 889 
Q 3016 1369 3016 2328 
Q 3016 3291 2770 3770 
Q 2525 4250 2034 4250 
z
M 2034 4750 
Q 2819 4750 3233 4129 
Q 3647 3509 3647 2328 
Q 3647 1150 3233 529 
Q 2819 -91 2034 -91 
Q 1250 -91 836 529 
Q 422 1150 422 2328 
Q 422 3509 836 4129 
Q 1250 4750 2034 4750 
z
" transform="scale(0.015625)"/>
        <path id="DejaVuSans-2e" d="M 684 794 
L 1344 794 
L 1344 0 
L 684 0 
L 684 794 
z
" transform="scale(0.015625)"/>
       </defs>
       <use xlink:href="#DejaVuSans-30"/>
       <use xlink:href="#DejaVuSans-2e" x="63.623047"/>
       <use xlink:href="#DejaVuSans-30" x="95.410156"/>
      </g>
     </g>
    </g>
    <g id="ytick_2">
     <g id="line2d_10">
      <g>
       <use xlink:href="#mef86bbe14e" x="56.524844" y="83.664556" style="stroke: #000000; stroke-width: 0.8"/>
      </g>
     </g>
     <g id="text_2">
      <!-- 0.5 -->
      <g transform="translate(32.031406 87.843696)scale(0.11 -0.11)">
       <defs>
        <path id="DejaVuSans-35" d="M 691 4666 
L 3169 4666 
L 3169 4134 
L 1269 4134 
L 1269 2991 
Q 1406 3038 1543 3061 
Q 1681 3084 1819 3084 
Q 2600 3084 3056 2656 
Q 3513 2228 3513 1497 
Q 3513 744 3044 326 
Q 2575 -91 1722 -91 
Q 1428 -91 1123 -41 
Q 819 9 494 109 
L 494 744 
Q 775 591 1075 516 
Q 1375 441 1709 441 
Q 2250 441 2565 725 
Q 2881 1009 2881 1497 
Q 2881 1984 2565 2268 
Q 2250 2553 1709 2553 
Q 1456 2553 1204 2497 
Q 953 2441 691 2322 
L 691 4666 
z
" transform="scale(0.015625)"/>
       </defs>
       <use xlink:href="#DejaVuSans-30"/>
       <use xlink:href="#DejaVuSans-2e" x="63.623047"/>
       <use xlink:href="#DejaVuSans-35" x="95.410156"/>
      </g>
     </g>
    </g>
    <g id="ytick_3">
     <g id="line2d_11">
      <g>
       <use xlink:href="#mef86bbe14e" x="56.524844" y="57.779488" style="stroke: #000000; stroke-width: 0.8"/>
      </g>
     </g>
     <g id="text_3">
      <!-- 1.0 -->
      <g transform="translate(32.031406 61.958629)scale(0.11 -0.11)">
       <defs>
        <path id="DejaVuSans-31" d="M 794 531 
L 1825 531 
L 1825 4091 
L 703 3866 
L 703 4441 
L 1819 4666 
L 2450 4666 
L 2450 531 
L 3481 531 
L 3481 0 
L 794 0 
L 794 531 
z
" transform="scale(0.015625)"/>
       </defs>
       <use xlink:href="#DejaVuSans-31"/>
       <use xlink:href="#DejaVuSans-2e" x="63.623047"/>
       <use xlink:href="#DejaVuSans-30" x="95.410156"/>
      </g>
     </g>
    </g>
    <g id="ytick_4">
     <g id="line2d_12">
      <g>
       <use xlink:href="#mef86bbe14e" x="56.524844" y="31.894421" style="stroke: #000000; stroke-width: 0.8"/>
      </g>
     </g>
     <g id="text_4">
      <!-- 1.5 -->
      <g transform="translate(32.031406 36.073562)scale(0.11 -0.11)">
       <use xlink:href="#DejaVuSans-31"/>
       <use xlink:href="#DejaVuSans-2e" x="63.623047"/>
       <use xlink:href="#DejaVuSans-35" x="95.410156"/>
      </g>
     </g>
    </g>
    <g id="text_5">
     <!-- dF/F -->
     <g transform="translate(25.535781 86.767187)rotate(-90)scale(0.12 -0.12)">
      <defs>
       <path id="DejaVuSans-64" d="M 2906 2969 
L 2906 4863 
L 3481 4863 
L 3481 0 
L 2906 0 
L 2906 525 
Q 2725 213 2448 61 
Q 2172 -91 1784 -91 
Q 1150 -91 751 415 
Q 353 922 353 1747 
Q 353 2572 751 3078 
Q 1150 3584 1784 3584 
Q 2172 3584 2448 3432 
Q 2725 3281 2906 2969 
z
M 947 1747 
Q 947 1113 1208 752 
Q 1469 391 1925 391 
Q 2381 391 2643 752 
Q 2906 1113 2906 1747 
Q 2906 2381 2643 2742 
Q 2381 3103 1925 3103 
Q 1469 3103 1208 2742 
Q 947 2381 947 1747 
z
" transform="scale(0.015625)"/>
       <path id="DejaVuSans-46" d="M 628 4666 
L 3309 4666 
L 3309 4134 
L 1259 4134 
L 1259 2759 
L 3109 2759 
L 3109 2228 
L 1259 2228 
L 1259 0 
L 628 0 
L 628 4666 
z
" transform="scale(0.015625)"/>
       <path id="DejaVuSans-2f" d="M 1625 4666 
L 2156 4666 
L 531 -594 
L 0 -594 
L 1625 4666 
z
" transform="scale(0.015625)"/>
      </defs>
      <use xlink:href="#DejaVuSans-64"/>
      <use xlink:href="#DejaVuSans-46" x="63.476562"/>
      <use xlink:href="#DejaVuSans-2f" x="120.996094"/>
      <use xlink:href="#DejaVuSans-46" x="154.6875"/>
     </g>
    </g>
   </g>
   <g id="line2d_13">
    <path d="M 56.524844 108.312793 
L 57.671948 104.955686 
L 58.819053 92.587397 
L 59.966158 88.700237 
L 61.113262 89.760334 
L 62.260367 74.388331 
L 63.407472 67.674107 
L 64.554576 67.850799 
L 65.701681 48.944915 
L 66.848786 44.350833 
L 67.995891 50.535294 
L 69.142995 50.535294 
L 70.2901 64.847095 
L 71.437205 81.63263 
L 72.584309 86.579939 
L 73.731414 93.294163 
L 74.878519 95.944483 
L 76.025623 91.880631 
L 77.172728 96.297866 
L 78.319833 104.778995 
L 79.466937 107.606027 
L 80.614042 103.01209 
L 81.761147 97.358015 
L 82.908251 100.36177 
L 84.055356 106.899277 
L 85.202461 114.320246 
L 86.349565 108.312793 
L 87.49667 96.297866 
L 88.643775 98.418164 
L 90.937984 118.384093 
L 92.085089 115.203698 
L 93.232193 105.309064 
L 94.379298 106.722585 
L 95.526403 115.557081 
L 96.673507 114.496937 
L 97.820612 117.147304 
L 98.967717 112.730043 
L 100.114821 101.245176 
L 101.261926 102.658707 
L 102.409031 101.068484 
L 103.556136 89.760334 
L 104.70324 90.467099 
L 105.850345 104.072239 
L 106.99745 105.662442 
L 108.144554 109.903001 
L 109.291659 110.786453 
L 110.438764 104.425617 
L 111.585868 100.715153 
L 112.732973 114.850315 
L 113.880078 109.549626 
L 115.027182 101.59861 
L 116.174287 82.339395 
L 117.321392 80.219098 
L 118.468496 90.467099 
L 119.615601 109.726312 
L 120.762706 121.387848 
L 121.90981 122.978071 
L 123.056915 103.365473 
L 124.20402 95.414409 
L 125.351124 89.230259 
L 126.498229 95.237717 
L 127.645334 111.6699 
L 128.792438 120.857773 
L 131.086648 108.842862 
L 132.233752 107.075963 
L 133.380857 112.199969 
L 134.527962 117.85407 
L 135.675066 116.793921 
L 136.822171 112.730043 
L 137.969276 116.087155 
L 139.11638 120.50439 
L 140.263485 122.978071 
L 141.41059 120.327699 
L 142.557695 116.970613 
L 143.704799 118.560784 
L 144.851904 112.906735 
L 145.999009 108.489489 
L 147.146113 110.079692 
L 148.293218 102.835399 
L 149.440323 102.835399 
L 150.587427 101.598558 
L 151.734532 102.835399 
L 152.881637 107.782724 
L 154.028741 114.673629 
L 155.175846 114.673629 
L 156.322951 114.320246 
L 157.470055 104.779 
L 158.61716 106.722585 
L 160.911369 103.188782 
L 162.058474 103.365473 
L 163.205579 104.955686 
L 164.352683 100.36177 
L 165.499788 104.072239 
L 166.646893 100.891844 
L 168.941102 101.951941 
L 170.088207 106.015824 
L 171.235311 114.496942 
L 172.382416 119.797624 
L 173.529521 123.508145 
L 174.676625 122.978071 
L 175.82373 119.090858 
L 176.970835 113.613495 
L 178.11794 105.662447 
L 179.265044 106.015824 
L 180.412149 109.196241 
L 181.559254 104.955686 
L 182.706358 110.079692 
L 183.853463 107.075963 
L 185.000568 106.192516 
L 186.147672 126.335157 
L 187.294777 127.571997 
L 189.588986 105.48575 
L 190.736091 89.937025 
L 191.883196 88.523545 
L 193.0303 103.188782 
L 194.177405 104.955686 
L 195.32451 113.260107 
L 196.471614 113.966868 
L 197.618719 121.034465 
L 198.765824 119.444241 
L 199.912928 113.260113 
L 201.060033 103.188782 
L 202.207138 102.835399 
L 203.354242 101.245176 
L 205.648452 119.620933 
L 206.795556 117.677379 
L 207.942661 110.079692 
L 209.089766 96.651249 
L 210.23687 93.647546 
L 211.383975 93.647546 
L 212.53108 108.136112 
L 213.678185 112.553352 
L 214.825289 115.203698 
L 215.972394 119.090858 
L 217.119499 122.271305 
L 218.266603 114.14356 
L 219.413708 109.726318 
L 220.560813 92.764089 
L 221.707917 97.534706 
L 224.002127 109.196241 
L 225.149231 109.549619 
L 226.296336 109.726312 
L 227.443441 99.301621 
L 228.590545 106.015824 
L 230.884755 117.500687 
L 232.031859 118.207401 
L 234.326069 101.598558 
L 235.473173 100.185078 
L 236.620278 101.068484 
L 237.767383 106.015824 
L 238.914487 107.252649 
L 240.061592 106.369202 
L 241.208697 104.072239 
L 242.355801 110.963144 
L 243.502906 113.61349 
L 244.650011 112.37666 
L 245.797115 104.602308 
L 249.238429 113.966868 
L 250.385534 120.327699 
L 251.532639 116.61723 
L 252.679744 103.718856 
L 253.826848 103.188782 
L 254.973953 110.963144 
L 256.121058 111.669905 
L 257.268162 108.666176 
L 258.415267 104.24893 
L 259.562372 98.241472 
L 260.709476 99.655004 
L 261.856581 103.365473 
L 263.003686 113.083426 
L 265.297895 104.602308 
L 266.445 115.027006 
L 267.592104 122.094613 
L 268.739209 117.85407 
L 269.886314 111.493208 
L 271.033418 99.301621 
L 272.180523 96.827941 
L 273.327628 102.835399 
L 274.474732 103.895548 
L 275.621837 107.959415 
L 276.768942 105.48576 
L 277.916046 104.425617 
L 280.210256 118.207453 
L 281.35736 118.560784 
L 282.504465 127.218614 
L 283.65157 125.805083 
L 284.798674 120.327699 
L 285.945779 118.560784 
L 287.092884 122.094613 
L 288.239989 120.50439 
L 289.387093 124.038168 
L 290.534198 113.61349 
L 291.681303 104.955686 
L 293.975512 120.327699 
L 295.122617 118.030761 
L 296.269721 116.61723 
L 297.416826 111.316527 
L 298.563931 110.079687 
L 299.711035 111.13983 
L 300.85814 108.136101 
L 302.005245 103.188782 
L 303.152349 103.01209 
L 304.299454 118.737476 
L 305.446559 121.034465 
L 306.593663 126.68854 
L 307.740768 122.447996 
L 308.887873 121.917922 
L 310.034977 122.801379 
L 311.182082 128.102072 
L 312.329187 116.263847 
L 313.476291 118.914167 
L 314.623396 112.199969 
L 315.770501 114.496937 
L 316.917605 122.271305 
L 318.06471 121.387848 
L 319.211815 128.455455 
L 320.358919 124.038168 
L 321.506024 112.023283 
L 322.653129 104.602308 
L 323.800234 96.297866 
L 324.947338 82.692778 
L 326.094443 74.565023 
L 327.241548 52.655281 
L 328.388652 41.34713 
L 329.535757 37.460228 
L 330.682862 29.508854 
L 331.829966 35.163188 
L 332.977071 35.86985 
L 334.124176 34.986651 
L 335.27128 57.602952 
L 336.418385 53.008871 
L 337.56549 39.933805 
L 338.712594 38.343427 
L 339.859699 39.403679 
L 341.006804 50.181704 
L 342.153908 69.971096 
L 343.301013 58.309563 
L 344.448118 73.681565 
L 345.595222 67.320724 
L 346.742327 64.493712 
L 347.889432 66.437319 
L 349.036536 65.907244 
L 350.183641 48.768379 
L 351.330746 58.132871 
L 352.47785 54.069123 
L 353.624955 45.411086 
L 354.77206 37.636765 
L 355.919164 39.933805 
L 357.066269 19.614545 
L 358.213374 25.975542 
L 359.360478 47.884663 
L 360.507583 51.772082 
L 362.801793 88.876928 
L 363.948897 70.501171 
L 365.096002 62.550106 
L 366.243107 58.486254 
L 367.390211 50.358757 
L 368.537316 61.666649 
L 369.684421 63.256872 
L 370.831525 56.012574 
L 371.97863 57.072826 
L 373.125735 67.674107 
L 374.272839 69.617713 
L 375.419944 76.68532 
L 376.567049 81.63263 
L 377.714153 84.28295 
L 378.861258 80.395789 
L 380.008363 65.730553 
L 381.155467 55.482448 
L 382.302572 53.185407 
L 383.449677 63.433564 
L 384.596781 71.207937 
L 385.743886 74.034948 
L 386.890991 68.02749 
L 388.038095 68.734256 
L 389.1852 68.02749 
L 390.332305 67.850799 
L 391.479409 67.320724 
L 392.626514 63.610255 
L 393.773619 57.602952 
L 394.920723 57.249362 
L 396.067828 66.437267 
L 397.214933 70.854554 
L 398.362038 70.677862 
L 399.509142 66.79065 
L 400.656247 55.658984 
L 401.803352 51.418492 
L 402.950456 50.181704 
L 405.244666 74.21164 
L 406.39177 76.155246 
L 407.538875 71.561319 
L 408.68598 56.5427 
L 409.833084 46.117748 
L 410.980189 50.358757 
L 412.127294 66.083936 
L 413.274398 74.388331 
L 414.421503 76.508629 
L 415.568608 76.862012 
L 416.715712 75.801863 
L 417.862817 72.621468 
L 419.009922 90.113717 
L 420.157026 97.534706 
L 421.304131 93.470854 
L 422.451236 94.707695 
L 423.59834 87.463396 
L 424.745445 75.625171 
L 425.89255 75.44848 
L 427.039654 86.75663 
L 428.186759 76.508629 
L 429.333864 67.320724 
L 430.480968 69.971096 
L 431.628073 74.565023 
L 432.775178 74.918406 
L 433.922283 94.000929 
L 435.069387 79.865715 
L 436.216492 68.910947 
L 437.363597 66.437319 
L 438.510701 69.441022 
L 439.657806 53.362461 
L 440.804911 46.647874 
L 441.952015 44.350833 
L 443.09912 53.185407 
L 444.246225 63.256872 
L 445.393329 61.666649 
L 446.540434 58.132871 
L 447.687539 53.892069 
L 448.834643 63.256872 
L 449.981748 81.279247 
L 451.128853 91.527248 
L 452.275957 80.219098 
L 453.423062 77.568778 
L 454.570167 74.565023 
L 455.717271 79.335641 
L 456.864376 72.974799 
L 458.011481 69.971096 
L 459.158585 64.317021 
L 460.30569 66.260627 
L 461.452795 75.271789 
L 462.599899 91.173865 
L 463.747004 100.891844 
L 464.894109 121.917922 
L 466.041213 119.090858 
L 467.188318 116.793921 
L 468.335423 107.252649 
L 469.482527 94.884386 
L 470.629632 102.128633 
L 471.776737 105.662442 
L 472.923842 93.824237 
L 474.070946 100.185078 
L 475.218051 103.365473 
L 476.365156 104.072239 
L 477.51226 115.203698 
L 478.659365 117.147304 
L 479.80647 104.425617 
L 480.953574 106.899271 
L 482.100679 105.132383 
L 483.247784 112.199969 
L 484.394888 123.861476 
L 485.541993 125.275008 
L 486.689098 107.959415 
L 487.836202 109.903001 
L 488.983307 106.545894 
L 490.130412 105.48575 
L 491.277516 106.015819 
L 492.424621 101.245176 
L 493.571726 99.655004 
L 494.71883 116.61723 
L 495.865935 124.391551 
L 497.01304 122.978071 
L 498.160144 113.436799 
L 499.307249 109.549623 
L 500.454354 107.429346 
L 501.601458 110.256383 
L 502.748563 115.557081 
L 503.895668 112.199974 
L 505.042772 101.245176 
L 506.189877 101.598558 
L 507.336982 106.722585 
L 508.484087 114.14356 
L 509.631191 124.744934 
L 510.778296 122.801379 
L 513.072505 116.087155 
L 514.21961 114.673634 
L 515.366715 116.263847 
L 516.513819 110.079692 
L 517.660924 110.609761 
L 518.808029 112.553347 
L 519.955133 109.726312 
L 521.102238 105.48575 
L 522.249343 105.662447 
L 523.396447 97.181324 
L 524.543552 101.068484 
L 525.690657 103.01209 
L 526.837761 114.14356 
L 527.984866 114.673634 
L 529.131971 116.793921 
L 530.279075 107.075963 
L 531.42618 100.36177 
L 532.573285 96.297866 
L 533.720389 108.842862 
L 536.014599 123.154762 
L 537.161703 123.331454 
L 538.308808 119.620933 
L 539.455913 107.606037 
L 540.603017 104.24893 
L 541.750122 109.726318 
L 542.897227 111.316522 
L 544.044332 110.256378 
L 545.191436 112.199969 
L 546.338541 107.429341 
L 547.485646 114.673624 
L 548.63275 125.275008 
L 549.779855 123.861528 
L 550.92696 110.43307 
L 552.074064 108.489484 
L 553.221169 104.955681 
L 554.368274 105.839133 
L 555.515378 113.61349 
L 556.662483 111.316522 
L 557.809588 108.312798 
L 558.956692 111.139841 
L 560.103797 100.891844 
L 561.250902 97.534706 
L 562.398006 90.997174 
L 563.545111 91.527248 
L 564.692216 94.707695 
L 565.83932 102.835399 
L 566.986425 108.312793 
L 568.13353 118.207453 
L 569.280634 113.966868 
L 570.427739 122.801379 
L 570.427739 122.801379 
" clip-path="url(#p67b29000ce)" style="fill: none; stroke: #1f77b4; stroke-width: 1.5; stroke-linecap: square"/>
   </g>
   <g id="patch_3">
    <path d="M 56.524844 133.8975 
L 56.524844 14.1725 
" style="fill: none; stroke: #000000; stroke-width: 0.8; stroke-linejoin: miter; stroke-linecap: square"/>
   </g>
   <g id="patch_4">
    <path d="M 56.524844 133.8975 
L 571.574844 133.8975 
" style="fill: none; stroke: #000000; stroke-width: 0.8; stroke-linejoin: miter; stroke-linecap: square"/>
   </g>
  </g>
  <g id="axes_2">
   <g id="patch_5">
    <path d="M 56.524844 267.9225 
L 571.574844 267.9225 
L 571.574844 148.1975 
L 56.524844 148.1975 
z
" style="fill: #ffffff"/>
   </g>
   <g id="matplotlib.axis_3">
    <g id="xtick_9">
     <g id="line2d_14">
      <g>
       <use xlink:href="#md582e387b2" x="56.524844" y="267.9225" style="stroke: #000000; stroke-width: 0.8"/>
      </g>
     </g>
    </g>
    <g id="xtick_10">
     <g id="line2d_15">
      <g>
       <use xlink:href="#md582e387b2" x="123.343691" y="267.9225" style="stroke: #000000; stroke-width: 0.8"/>
      </g>
     </g>
    </g>
    <g id="xtick_11">
     <g id="line2d_16">
      <g>
       <use xlink:href="#md582e387b2" x="190.162539" y="267.9225" style="stroke: #000000; stroke-width: 0.8"/>
      </g>
     </g>
    </g>
    <g id="xtick_12">
     <g id="line2d_17">
      <g>
       <use xlink:href="#md582e387b2" x="256.981386" y="267.9225" style="stroke: #000000; stroke-width: 0.8"/>
      </g>
     </g>
    </g>
    <g id="xtick_13">
     <g id="line2d_18">
      <g>
       <use xlink:href="#md582e387b2" x="323.800234" y="267.9225" style="stroke: #000000; stroke-width: 0.8"/>
      </g>
     </g>
    </g>
    <g id="xtick_14">
     <g id="line2d_19">
      <g>
       <use xlink:href="#md582e387b2" x="390.619081" y="267.9225" style="stroke: #000000; stroke-width: 0.8"/>
      </g>
     </g>
    </g>
    <g id="xtick_15">
     <g id="line2d_20">
      <g>
       <use xlink:href="#md582e387b2" x="457.437928" y="267.9225" style="stroke: #000000; stroke-width: 0.8"/>
      </g>
     </g>
    </g>
    <g id="xtick_16">
     <g id="line2d_21">
      <g>
       <use xlink:href="#md582e387b2" x="524.256776" y="267.9225" style="stroke: #000000; stroke-width: 0.8"/>
      </g>
     </g>
    </g>
   </g>
   <g id="matplotlib.axis_4">
    <g id="ytick_5">
     <g id="line2d_22">
      <g>
       <use xlink:href="#mef86bbe14e" x="56.524844" y="259.738714" style="stroke: #000000; stroke-width: 0.8"/>
      </g>
     </g>
     <g id="text_6">
      <!-- −2.5 -->
      <g transform="translate(22.81375 263.917854)scale(0.11 -0.11)">
       <defs>
        <path id="DejaVuSans-2212" d="M 678 2272 
L 4684 2272 
L 4684 1741 
L 678 1741 
L 678 2272 
z
" transform="scale(0.015625)"/>
        <path id="DejaVuSans-32" d="M 1228 531 
L 3431 531 
L 3431 0 
L 469 0 
L 469 531 
Q 828 903 1448 1529 
Q 2069 2156 2228 2338 
Q 2531 2678 2651 2914 
Q 2772 3150 2772 3378 
Q 2772 3750 2511 3984 
Q 2250 4219 1831 4219 
Q 1534 4219 1204 4116 
Q 875 4013 500 3803 
L 500 4441 
Q 881 4594 1212 4672 
Q 1544 4750 1819 4750 
Q 2544 4750 2975 4387 
Q 3406 4025 3406 3419 
Q 3406 3131 3298 2873 
Q 3191 2616 2906 2266 
Q 2828 2175 2409 1742 
Q 1991 1309 1228 531 
z
" transform="scale(0.015625)"/>
       </defs>
       <use xlink:href="#DejaVuSans-2212"/>
       <use xlink:href="#DejaVuSans-32" x="83.789062"/>
       <use xlink:href="#DejaVuSans-2e" x="147.412109"/>
       <use xlink:href="#DejaVuSans-35" x="179.199219"/>
      </g>
     </g>
    </g>
    <g id="ytick_6">
     <g id="line2d_23">
      <g>
       <use xlink:href="#mef86bbe14e" x="56.524844" y="231.336208" style="stroke: #000000; stroke-width: 0.8"/>
      </g>
     </g>
     <g id="text_7">
      <!-- 0.0 -->
      <g transform="translate(32.031406 235.515349)scale(0.11 -0.11)">
       <use xlink:href="#DejaVuSans-30"/>
       <use xlink:href="#DejaVuSans-2e" x="63.623047"/>
       <use xlink:href="#DejaVuSans-30" x="95.410156"/>
      </g>
     </g>
    </g>
    <g id="ytick_7">
     <g id="line2d_24">
      <g>
       <use xlink:href="#mef86bbe14e" x="56.524844" y="202.933702" style="stroke: #000000; stroke-width: 0.8"/>
      </g>
     </g>
     <g id="text_8">
      <!-- 2.5 -->
      <g transform="translate(32.031406 207.112843)scale(0.11 -0.11)">
       <use xlink:href="#DejaVuSans-32"/>
       <use xlink:href="#DejaVuSans-2e" x="63.623047"/>
       <use xlink:href="#DejaVuSans-35" x="95.410156"/>
      </g>
     </g>
    </g>
    <g id="ytick_8">
     <g id="line2d_25">
      <g>
       <use xlink:href="#mef86bbe14e" x="56.524844" y="174.531197" style="stroke: #000000; stroke-width: 0.8"/>
      </g>
     </g>
     <g id="text_9">
      <!-- 5.0 -->
      <g transform="translate(32.031406 178.710337)scale(0.11 -0.11)">
       <use xlink:href="#DejaVuSans-35"/>
       <use xlink:href="#DejaVuSans-2e" x="63.623047"/>
       <use xlink:href="#DejaVuSans-30" x="95.410156"/>
      </g>
     </g>
    </g>
    <g id="text_10">
     <!-- Release Rate -->
     <g transform="translate(16.318125 247.165937)rotate(-90)scale(0.12 -0.12)">
      <defs>
       <path id="DejaVuSans-52" d="M 2841 2188 
Q 3044 2119 3236 1894 
Q 3428 1669 3622 1275 
L 4263 0 
L 3584 0 
L 2988 1197 
Q 2756 1666 2539 1819 
Q 2322 1972 1947 1972 
L 1259 1972 
L 1259 0 
L 628 0 
L 628 4666 
L 2053 4666 
Q 2853 4666 3247 4331 
Q 3641 3997 3641 3322 
Q 3641 2881 3436 2590 
Q 3231 2300 2841 2188 
z
M 1259 4147 
L 1259 2491 
L 2053 2491 
Q 2509 2491 2742 2702 
Q 2975 2913 2975 3322 
Q 2975 3731 2742 3939 
Q 2509 4147 2053 4147 
L 1259 4147 
z
" transform="scale(0.015625)"/>
       <path id="DejaVuSans-65" d="M 3597 1894 
L 3597 1613 
L 953 1613 
Q 991 1019 1311 708 
Q 1631 397 2203 397 
Q 2534 397 2845 478 
Q 3156 559 3463 722 
L 3463 178 
Q 3153 47 2828 -22 
Q 2503 -91 2169 -91 
Q 1331 -91 842 396 
Q 353 884 353 1716 
Q 353 2575 817 3079 
Q 1281 3584 2069 3584 
Q 2775 3584 3186 3129 
Q 3597 2675 3597 1894 
z
M 3022 2063 
Q 3016 2534 2758 2815 
Q 2500 3097 2075 3097 
Q 1594 3097 1305 2825 
Q 1016 2553 972 2059 
L 3022 2063 
z
" transform="scale(0.015625)"/>
       <path id="DejaVuSans-6c" d="M 603 4863 
L 1178 4863 
L 1178 0 
L 603 0 
L 603 4863 
z
" transform="scale(0.015625)"/>
       <path id="DejaVuSans-61" d="M 2194 1759 
Q 1497 1759 1228 1600 
Q 959 1441 959 1056 
Q 959 750 1161 570 
Q 1363 391 1709 391 
Q 2188 391 2477 730 
Q 2766 1069 2766 1631 
L 2766 1759 
L 2194 1759 
z
M 3341 1997 
L 3341 0 
L 2766 0 
L 2766 531 
Q 2569 213 2275 61 
Q 1981 -91 1556 -91 
Q 1019 -91 701 211 
Q 384 513 384 1019 
Q 384 1609 779 1909 
Q 1175 2209 1959 2209 
L 2766 2209 
L 2766 2266 
Q 2766 2663 2505 2880 
Q 2244 3097 1772 3097 
Q 1472 3097 1187 3025 
Q 903 2953 641 2809 
L 641 3341 
Q 956 3463 1253 3523 
Q 1550 3584 1831 3584 
Q 2591 3584 2966 3190 
Q 3341 2797 3341 1997 
z
" transform="scale(0.015625)"/>
       <path id="DejaVuSans-73" d="M 2834 3397 
L 2834 2853 
Q 2591 2978 2328 3040 
Q 2066 3103 1784 3103 
Q 1356 3103 1142 2972 
Q 928 2841 928 2578 
Q 928 2378 1081 2264 
Q 1234 2150 1697 2047 
L 1894 2003 
Q 2506 1872 2764 1633 
Q 3022 1394 3022 966 
Q 3022 478 2636 193 
Q 2250 -91 1575 -91 
Q 1294 -91 989 -36 
Q 684 19 347 128 
L 347 722 
Q 666 556 975 473 
Q 1284 391 1588 391 
Q 1994 391 2212 530 
Q 2431 669 2431 922 
Q 2431 1156 2273 1281 
Q 2116 1406 1581 1522 
L 1381 1569 
Q 847 1681 609 1914 
Q 372 2147 372 2553 
Q 372 3047 722 3315 
Q 1072 3584 1716 3584 
Q 2034 3584 2315 3537 
Q 2597 3491 2834 3397 
z
" transform="scale(0.015625)"/>
       <path id="DejaVuSans-20" transform="scale(0.015625)"/>
       <path id="DejaVuSans-74" d="M 1172 4494 
L 1172 3500 
L 2356 3500 
L 2356 3053 
L 1172 3053 
L 1172 1153 
Q 1172 725 1289 603 
Q 1406 481 1766 481 
L 2356 481 
L 2356 0 
L 1766 0 
Q 1100 0 847 248 
Q 594 497 594 1153 
L 594 3053 
L 172 3053 
L 172 3500 
L 594 3500 
L 594 4494 
L 1172 4494 
z
" transform="scale(0.015625)"/>
      </defs>
      <use xlink:href="#DejaVuSans-52"/>
      <use xlink:href="#DejaVuSans-65" x="64.982422"/>
      <use xlink:href="#DejaVuSans-6c" x="126.505859"/>
      <use xlink:href="#DejaVuSans-65" x="154.289062"/>
      <use xlink:href="#DejaVuSans-61" x="215.8125"/>
      <use xlink:href="#DejaVuSans-73" x="277.091797"/>
      <use xlink:href="#DejaVuSans-65" x="329.191406"/>
      <use xlink:href="#DejaVuSans-20" x="390.714844"/>
      <use xlink:href="#DejaVuSans-52" x="422.501953"/>
      <use xlink:href="#DejaVuSans-61" x="489.734375"/>
      <use xlink:href="#DejaVuSans-74" x="551.013672"/>
      <use xlink:href="#DejaVuSans-65" x="590.222656"/>
     </g>
    </g>
   </g>
   <g id="line2d_26">
    <path d="M 56.524844 224.486439 
L 57.671948 208.685226 
L 58.819053 212.726232 
L 59.966158 218.803226 
L 61.113262 191.992187 
L 63.407472 201.466279 
L 64.554576 171.759201 
L 65.701681 181.418608 
L 66.848786 195.877952 
L 67.995891 189.607246 
L 69.142995 214.129216 
L 70.2901 226.444398 
L 71.437205 220.108679 
L 72.584309 225.82653 
L 73.731414 224.251688 
L 74.878519 214.81116 
L 76.025623 227.098917 
L 77.172728 235.3056 
L 78.319833 232.705616 
L 79.466937 221.595144 
L 80.614042 218.341958 
L 82.908251 236.29836 
L 84.055356 240.816027 
L 85.202461 224.063757 
L 86.349565 210.905413 
L 87.49667 226.945229 
L 88.643775 239.44059 
L 89.790879 247.175572 
L 90.937984 230.48135 
L 92.085089 219.911969 
L 94.379298 244.011513 
L 95.526403 232.789501 
L 96.673507 240.282866 
L 97.820612 226.871688 
L 98.967717 216.2556 
L 100.114821 227.763633 
L 101.261926 223.308586 
L 102.409031 205.613794 
L 104.70324 238.810572 
L 105.850345 230.63976 
L 106.99745 234.996006 
L 108.144554 233.207002 
L 109.291659 219.455615 
L 110.438764 225.605926 
L 111.585868 246.765029 
L 112.732973 225.369688 
L 113.880078 216.00005 
L 115.027182 194.312436 
L 116.174287 211.12139 
L 118.468496 249.969405 
L 119.615601 250.379212 
L 120.762706 238.377554 
L 121.90981 207.501071 
L 123.056915 215.136237 
L 124.20402 211.318818 
L 126.498229 249.037481 
L 127.645334 245.702773 
L 128.792438 227.710469 
L 129.939543 225.721721 
L 131.086648 228.864989 
L 132.233752 239.350034 
L 133.380857 241.859292 
L 134.527962 233.928594 
L 135.675066 230.60872 
L 136.822171 240.262148 
L 137.969276 243.213857 
L 139.11638 242.420848 
L 140.263485 235.313009 
L 141.41059 234.209455 
L 142.557695 239.013365 
L 143.704799 225.921166 
L 144.851904 229.173201 
L 145.999009 230.814689 
L 147.146113 220.211448 
L 148.293218 227.022251 
L 149.440323 224.62338 
L 150.587427 228.504418 
L 151.734532 236.821892 
L 152.881637 239.978594 
L 154.028741 235.359542 
L 155.175846 231.464915 
L 156.322951 219.743535 
L 157.470055 232.44357 
L 158.61716 224.851697 
L 159.764265 225.878462 
L 160.911369 227.969928 
L 162.058474 227.999529 
L 163.205579 221.368345 
L 164.352683 231.460711 
L 165.499788 220.534591 
L 166.646893 228.235679 
L 167.793997 225.437662 
L 168.941102 236.307521 
L 170.088207 242.299899 
L 171.235311 244.340709 
L 172.382416 243.522124 
L 173.529521 239.34616 
L 174.676625 233.003089 
L 175.82373 227.699236 
L 176.970835 220.878045 
L 178.11794 232.804567 
L 179.265044 230.884523 
L 180.412149 225.864625 
L 181.559254 237.413916 
L 182.706358 222.511196 
L 183.853463 237.018724 
L 185.000568 262.480455 
L 186.147672 237.8079 
L 187.294777 224.884606 
L 188.441882 214.532672 
L 189.588986 202.196049 
L 190.736091 224.298167 
L 191.883196 238.761825 
L 193.0303 230.81011 
L 194.177405 242.165537 
L 195.32451 235.135607 
L 196.471614 247.553111 
L 197.618719 232.000973 
L 198.765824 226.955614 
L 199.912928 216.546046 
L 201.060033 229.316284 
L 202.207138 223.111231 
L 203.354242 248.283738 
L 204.501347 240.577694 
L 205.648452 236.109844 
L 206.795556 216.183546 
L 207.942661 214.071798 
L 209.089766 214.9686 
L 211.383975 242.792342 
L 212.53108 237.535228 
L 213.678185 236.889202 
L 214.825289 245.776051 
L 215.972394 235.945669 
L 217.119499 229.384931 
L 219.413708 207.879403 
L 220.560813 232.096575 
L 221.707917 233.07268 
L 222.855022 235.352931 
L 224.002127 232.392659 
L 225.149231 225.92755 
L 226.296336 217.310119 
L 227.443441 240.438097 
L 228.590545 236.93099 
L 229.73765 244.115635 
L 232.031859 220.791528 
L 233.178964 219.49113 
L 234.326069 224.701583 
L 235.473173 228.421468 
L 236.620278 233.736691 
L 237.767383 229.72924 
L 238.914487 226.452085 
L 240.061592 229.083553 
L 241.208697 240.336916 
L 242.355801 234.636407 
L 244.650011 221.799243 
L 245.797115 237.74514 
L 246.94422 233.081919 
L 248.091325 241.85853 
L 249.238429 242.053835 
L 250.385534 225.523705 
L 251.532639 215.416074 
L 252.679744 234.418738 
L 253.826848 237.7886 
L 254.973953 231.106509 
L 256.121058 226.478127 
L 257.268162 220.72772 
L 258.415267 219.769771 
L 259.562372 227.929249 
L 260.709476 234.960227 
L 261.856581 240.895936 
L 263.003686 219.650442 
L 265.297895 247.567215 
L 266.445 242.29959 
L 267.592104 229.17286 
L 268.739209 223.031372 
L 269.886314 210.433851 
L 271.033418 229.51236 
L 272.180523 228.504327 
L 273.327628 232.269598 
L 274.474732 230.577719 
L 275.621837 225.555324 
L 276.768942 230.188239 
L 277.916046 245.233816 
L 279.063151 237.864393 
L 280.210256 245.042411 
L 281.35736 249.159201 
L 282.504465 237.084439 
L 283.65157 232.901289 
L 284.798674 241.13207 
L 285.945779 240.072553 
L 287.092884 241.092293 
L 288.239989 239.115587 
L 289.387093 217.008707 
L 290.534198 229.668931 
L 291.681303 245.876518 
L 292.828407 241.1772 
L 293.975512 233.817254 
L 295.122617 233.3246 
L 296.269721 225.851803 
L 297.416826 235.025164 
L 298.563931 229.088868 
L 299.711035 227.264013 
L 300.85814 218.655497 
L 302.005245 242.352489 
L 303.152349 247.820559 
L 304.299454 244.055546 
L 305.446559 244.478836 
L 306.593663 235.606819 
L 307.740768 240.588773 
L 308.887873 246.922597 
L 310.034977 238.648568 
L 311.182082 227.554854 
L 312.329187 240.915212 
L 313.476291 222.266341 
L 314.623396 251.145143 
L 315.770501 237.019246 
L 316.917605 248.770717 
L 318.06471 244.349678 
L 320.358919 217.379943 
L 321.506024 223.43681 
L 322.653129 201.774134 
L 323.800234 204.409036 
L 324.947338 183.155416 
L 326.094443 169.682383 
L 327.241548 176.577094 
L 328.388652 172.963624 
L 329.535757 171.732857 
L 330.682862 190.772191 
L 331.829966 168.267046 
L 332.977071 204.739111 
L 334.124176 203.752383 
L 335.27128 175.199691 
L 336.418385 172.059716 
L 337.56549 186.603937 
L 338.712594 182.603592 
L 339.859699 224.250581 
L 341.006804 194.225092 
L 342.153908 204.421068 
L 343.301013 211.849615 
L 344.448118 191.137288 
L 345.595222 201.438713 
L 346.742327 205.538663 
L 347.889432 180.860651 
L 349.036536 188.109756 
L 350.183641 202.109978 
L 351.330746 178.629198 
L 352.47785 175.479409 
L 353.624955 181.222639 
L 355.919164 153.639545 
L 357.066269 207.358619 
L 358.213374 195.787258 
L 359.360478 207.487282 
L 360.507583 235.586784 
L 362.801793 180.357468 
L 363.948897 199.950509 
L 365.096002 178.454157 
L 366.243107 200.662266 
L 367.390211 205.646232 
L 368.537316 191.751815 
L 369.684421 187.876716 
L 370.831525 209.047921 
L 371.97863 206.82124 
L 373.125735 210.094535 
L 374.272839 217.219442 
L 375.419944 215.492332 
L 376.567049 213.334514 
L 377.714153 193.500567 
L 378.861258 183.813036 
L 380.008363 185.915412 
L 381.155467 201.696573 
L 382.302572 212.102341 
L 383.449677 210.63477 
L 384.596781 200.840427 
L 385.743886 198.985629 
L 386.890991 204.590316 
L 388.038095 199.644416 
L 389.1852 203.556192 
L 390.332305 196.68395 
L 391.479409 192.35723 
L 392.626514 189.400914 
L 393.773619 205.981492 
L 394.920723 209.655925 
L 396.067828 205.113564 
L 397.214933 201.02644 
L 398.362038 187.437864 
L 399.509142 184.050526 
L 400.656247 188.112184 
L 401.803352 199.496953 
L 402.950456 219.327728 
L 404.097561 210.748128 
L 405.244666 206.03906 
L 406.39177 185.327743 
L 407.538875 176.782987 
L 408.68598 185.803056 
L 409.833084 211.006656 
L 410.980189 215.424714 
L 413.274398 208.032821 
L 414.421503 209.215627 
L 415.568608 200.184763 
L 416.715712 223.886559 
L 417.862817 236.418767 
L 419.009922 216.203173 
L 420.157026 222.229241 
L 421.304131 213.531291 
L 422.451236 199.776801 
L 423.59834 199.957601 
L 424.745445 225.500934 
L 425.89255 206.854583 
L 427.039654 191.931225 
L 428.186759 201.38069 
L 429.333864 213.271379 
L 430.480968 203.107622 
L 431.628073 233.979149 
L 433.922283 188.280267 
L 435.069387 199.007988 
L 436.216492 204.806951 
L 437.363597 186.942526 
L 438.510701 174.669773 
L 439.657806 186.632575 
L 440.804911 190.613075 
L 441.952015 212.531697 
L 443.09912 195.285893 
L 444.246225 196.468653 
L 445.393329 184.54008 
L 446.540434 204.594499 
L 447.687539 220.645553 
L 448.834643 234.97695 
L 449.981748 202.025867 
L 451.128853 206.942389 
L 452.275957 201.818403 
L 453.423062 215.246985 
L 454.570167 201.652692 
L 455.717271 201.598902 
L 456.864376 194.267778 
L 458.011481 201.353695 
L 459.158585 210.375476 
L 460.30569 232.475922 
L 461.452795 230.467765 
L 462.599899 257.239682 
L 463.747004 241.046504 
L 464.894109 232.919742 
L 466.041213 226.070022 
L 467.188318 208.854521 
L 468.335423 227.410957 
L 469.482527 236.582162 
L 470.629632 210.197144 
L 471.776737 226.378198 
L 472.923842 231.878644 
L 474.070946 226.723657 
L 475.218051 241.999485 
L 476.365156 243.651949 
L 477.51226 216.44904 
L 478.659365 229.9054 
L 479.80647 227.263853 
L 480.953574 236.487502 
L 482.100679 250.42208 
L 483.247784 248.357948 
L 484.394888 216.203356 
L 485.541993 230.014575 
L 486.689098 228.904564 
L 487.836202 225.673806 
L 488.983307 230.353207 
L 490.130412 222.446452 
L 491.277516 220.43075 
L 492.424621 248.139021 
L 493.571726 251.051914 
L 494.71883 240.604218 
L 495.865935 227.300591 
L 497.01304 226.480899 
L 498.160144 228.543336 
L 499.307249 232.477321 
L 500.454354 240.798333 
L 501.601458 232.107378 
L 502.748563 216.560286 
L 503.895668 223.662939 
L 505.042772 234.04817 
L 506.189877 239.306287 
L 507.336982 251.838575 
L 508.484087 240.548035 
L 509.631191 234.701937 
L 511.925401 232.667223 
L 513.072505 238.302029 
L 514.21961 226.602402 
L 515.366715 231.653214 
L 516.513819 235.282442 
L 517.660924 230.096902 
L 518.808029 223.86213 
L 519.955133 229.780459 
L 521.102238 214.974222 
L 522.249343 227.995655 
L 523.396447 228.042036 
L 524.543552 243.821041 
L 525.690657 236.334412 
L 526.837761 238.254471 
L 527.984866 222.471498 
L 529.131971 218.343892 
L 530.279075 217.948452 
L 531.42618 240.332894 
L 532.573285 242.787296 
L 533.720389 246.694072 
L 534.867494 242.429024 
L 536.014599 235.074348 
L 537.161703 220.428063 
L 538.308808 222.962447 
L 539.455913 236.705539 
L 541.750122 231.126669 
L 542.897227 234.717294 
L 544.044332 226.074006 
L 546.338541 252.547527 
L 547.485646 240.620081 
L 548.63275 220.504955 
L 549.779855 227.933328 
L 550.92696 225.730437 
L 552.074064 228.467771 
L 553.221169 241.707381 
L 554.368274 230.504393 
L 555.515378 227.843455 
L 556.662483 234.837968 
L 557.809588 216.654174 
L 558.956692 219.308945 
L 560.103797 212.960465 
L 562.398006 224.199622 
L 563.545111 233.4462 
L 564.692216 235.851846 
L 565.83932 245.94191 
L 566.986425 231.113278 
L 568.13353 248.11468 
L 569.280634 217.920559 
L 569.280634 217.920559 
" clip-path="url(#p8901a29c3a)" style="fill: none; stroke: #1f77b4; stroke-width: 1.5; stroke-linecap: square"/>
   </g>
   <g id="patch_6">
    <path d="M 56.524844 267.9225 
L 56.524844 148.1975 
" style="fill: none; stroke: #000000; stroke-width: 0.8; stroke-linejoin: miter; stroke-linecap: square"/>
   </g>
   <g id="patch_7">
    <path d="M 56.524844 267.9225 
L 571.574844 267.9225 
" style="fill: none; stroke: #000000; stroke-width: 0.8; stroke-linejoin: miter; stroke-linecap: square"/>
   </g>
  </g>
  <g id="axes_3">
   <g id="patch_8">
    <path d="M 56.524844 401.9475 
L 571.574844 401.9475 
L 571.574844 282.2225 
L 56.524844 282.2225 
z
" style="fill: #ffffff"/>
   </g>
   <g id="matplotlib.axis_5">
    <g id="xtick_17">
     <g id="line2d_27">
      <g>
       <use xlink:href="#md582e387b2" x="56.524844" y="401.9475" style="stroke: #000000; stroke-width: 0.8"/>
      </g>
     </g>
    </g>
    <g id="xtick_18">
     <g id="line2d_28">
      <g>
       <use xlink:href="#md582e387b2" x="123.343691" y="401.9475" style="stroke: #000000; stroke-width: 0.8"/>
      </g>
     </g>
    </g>
    <g id="xtick_19">
     <g id="line2d_29">
      <g>
       <use xlink:href="#md582e387b2" x="190.162539" y="401.9475" style="stroke: #000000; stroke-width: 0.8"/>
      </g>
     </g>
    </g>
    <g id="xtick_20">
     <g id="line2d_30">
      <g>
       <use xlink:href="#md582e387b2" x="256.981386" y="401.9475" style="stroke: #000000; stroke-width: 0.8"/>
      </g>
     </g>
    </g>
    <g id="xtick_21">
     <g id="line2d_31">
      <g>
       <use xlink:href="#md582e387b2" x="323.800234" y="401.9475" style="stroke: #000000; stroke-width: 0.8"/>
      </g>
     </g>
    </g>
    <g id="xtick_22">
     <g id="line2d_32">
      <g>
       <use xlink:href="#md582e387b2" x="390.619081" y="401.9475" style="stroke: #000000; stroke-width: 0.8"/>
      </g>
     </g>
    </g>
    <g id="xtick_23">
     <g id="line2d_33">
      <g>
       <use xlink:href="#md582e387b2" x="457.437928" y="401.9475" style="stroke: #000000; stroke-width: 0.8"/>
      </g>
     </g>
    </g>
    <g id="xtick_24">
     <g id="line2d_34">
      <g>
       <use xlink:href="#md582e387b2" x="524.256776" y="401.9475" style="stroke: #000000; stroke-width: 0.8"/>
      </g>
     </g>
    </g>
   </g>
   <g id="matplotlib.axis_6">
    <g id="ytick_9">
     <g id="line2d_35">
      <g>
       <use xlink:href="#mef86bbe14e" x="56.524844" y="396.505455" style="stroke: #000000; stroke-width: 0.8"/>
      </g>
     </g>
     <g id="text_11">
      <!-- 0 -->
      <g transform="translate(42.526094 400.684595)scale(0.11 -0.11)">
       <use xlink:href="#DejaVuSans-30"/>
      </g>
     </g>
    </g>
    <g id="ytick_10">
     <g id="line2d_36">
      <g>
       <use xlink:href="#mef86bbe14e" x="56.524844" y="369.295227" style="stroke: #000000; stroke-width: 0.8"/>
      </g>
     </g>
     <g id="text_12">
      <!-- 2 -->
      <g transform="translate(42.526094 373.474368)scale(0.11 -0.11)">
       <use xlink:href="#DejaVuSans-32"/>
      </g>
     </g>
    </g>
    <g id="ytick_11">
     <g id="line2d_37">
      <g>
       <use xlink:href="#mef86bbe14e" x="56.524844" y="342.085" style="stroke: #000000; stroke-width: 0.8"/>
      </g>
     </g>
     <g id="text_13">
      <!-- 4 -->
      <g transform="translate(42.526094 346.264141)scale(0.11 -0.11)">
       <defs>
        <path id="DejaVuSans-34" d="M 2419 4116 
L 825 1625 
L 2419 1625 
L 2419 4116 
z
M 2253 4666 
L 3047 4666 
L 3047 1625 
L 3713 1625 
L 3713 1100 
L 3047 1100 
L 3047 0 
L 2419 0 
L 2419 1100 
L 313 1100 
L 313 1709 
L 2253 4666 
z
" transform="scale(0.015625)"/>
       </defs>
       <use xlink:href="#DejaVuSans-34"/>
      </g>
     </g>
    </g>
    <g id="ytick_12">
     <g id="line2d_38">
      <g>
       <use xlink:href="#mef86bbe14e" x="56.524844" y="314.874773" style="stroke: #000000; stroke-width: 0.8"/>
      </g>
     </g>
     <g id="text_14">
      <!-- 6 -->
      <g transform="translate(42.526094 319.053913)scale(0.11 -0.11)">
       <defs>
        <path id="DejaVuSans-36" d="M 2113 2584 
Q 1688 2584 1439 2293 
Q 1191 2003 1191 1497 
Q 1191 994 1439 701 
Q 1688 409 2113 409 
Q 2538 409 2786 701 
Q 3034 994 3034 1497 
Q 3034 2003 2786 2293 
Q 2538 2584 2113 2584 
z
M 3366 4563 
L 3366 3988 
Q 3128 4100 2886 4159 
Q 2644 4219 2406 4219 
Q 1781 4219 1451 3797 
Q 1122 3375 1075 2522 
Q 1259 2794 1537 2939 
Q 1816 3084 2150 3084 
Q 2853 3084 3261 2657 
Q 3669 2231 3669 1497 
Q 3669 778 3244 343 
Q 2819 -91 2113 -91 
Q 1303 -91 875 529 
Q 447 1150 447 2328 
Q 447 3434 972 4092 
Q 1497 4750 2381 4750 
Q 2619 4750 2861 4703 
Q 3103 4656 3366 4563 
z
" transform="scale(0.015625)"/>
       </defs>
       <use xlink:href="#DejaVuSans-36"/>
      </g>
     </g>
    </g>
    <g id="ytick_13">
     <g id="line2d_39">
      <g>
       <use xlink:href="#mef86bbe14e" x="56.524844" y="287.664545" style="stroke: #000000; stroke-width: 0.8"/>
      </g>
     </g>
     <g id="text_15">
      <!-- 8 -->
      <g transform="translate(42.526094 291.843686)scale(0.11 -0.11)">
       <defs>
        <path id="DejaVuSans-38" d="M 2034 2216 
Q 1584 2216 1326 1975 
Q 1069 1734 1069 1313 
Q 1069 891 1326 650 
Q 1584 409 2034 409 
Q 2484 409 2743 651 
Q 3003 894 3003 1313 
Q 3003 1734 2745 1975 
Q 2488 2216 2034 2216 
z
M 1403 2484 
Q 997 2584 770 2862 
Q 544 3141 544 3541 
Q 544 4100 942 4425 
Q 1341 4750 2034 4750 
Q 2731 4750 3128 4425 
Q 3525 4100 3525 3541 
Q 3525 3141 3298 2862 
Q 3072 2584 2669 2484 
Q 3125 2378 3379 2068 
Q 3634 1759 3634 1313 
Q 3634 634 3220 271 
Q 2806 -91 2034 -91 
Q 1263 -91 848 271 
Q 434 634 434 1313 
Q 434 1759 690 2068 
Q 947 2378 1403 2484 
z
M 1172 3481 
Q 1172 3119 1398 2916 
Q 1625 2713 2034 2713 
Q 2441 2713 2670 2916 
Q 2900 3119 2900 3481 
Q 2900 3844 2670 4047 
Q 2441 4250 2034 4250 
Q 1625 4250 1398 4047 
Q 1172 3844 1172 3481 
z
" transform="scale(0.015625)"/>
       </defs>
       <use xlink:href="#DejaVuSans-38"/>
      </g>
     </g>
    </g>
    <g id="text_16">
     <!-- Poisson Quanta -->
     <g transform="translate(36.030469 388.489375)rotate(-90)scale(0.12 -0.12)">
      <defs>
       <path id="DejaVuSans-50" d="M 1259 4147 
L 1259 2394 
L 2053 2394 
Q 2494 2394 2734 2622 
Q 2975 2850 2975 3272 
Q 2975 3691 2734 3919 
Q 2494 4147 2053 4147 
L 1259 4147 
z
M 628 4666 
L 2053 4666 
Q 2838 4666 3239 4311 
Q 3641 3956 3641 3272 
Q 3641 2581 3239 2228 
Q 2838 1875 2053 1875 
L 1259 1875 
L 1259 0 
L 628 0 
L 628 4666 
z
" transform="scale(0.015625)"/>
       <path id="DejaVuSans-6f" d="M 1959 3097 
Q 1497 3097 1228 2736 
Q 959 2375 959 1747 
Q 959 1119 1226 758 
Q 1494 397 1959 397 
Q 2419 397 2687 759 
Q 2956 1122 2956 1747 
Q 2956 2369 2687 2733 
Q 2419 3097 1959 3097 
z
M 1959 3584 
Q 2709 3584 3137 3096 
Q 3566 2609 3566 1747 
Q 3566 888 3137 398 
Q 2709 -91 1959 -91 
Q 1206 -91 779 398 
Q 353 888 353 1747 
Q 353 2609 779 3096 
Q 1206 3584 1959 3584 
z
" transform="scale(0.015625)"/>
       <path id="DejaVuSans-69" d="M 603 3500 
L 1178 3500 
L 1178 0 
L 603 0 
L 603 3500 
z
M 603 4863 
L 1178 4863 
L 1178 4134 
L 603 4134 
L 603 4863 
z
" transform="scale(0.015625)"/>
       <path id="DejaVuSans-6e" d="M 3513 2113 
L 3513 0 
L 2938 0 
L 2938 2094 
Q 2938 2591 2744 2837 
Q 2550 3084 2163 3084 
Q 1697 3084 1428 2787 
Q 1159 2491 1159 1978 
L 1159 0 
L 581 0 
L 581 3500 
L 1159 3500 
L 1159 2956 
Q 1366 3272 1645 3428 
Q 1925 3584 2291 3584 
Q 2894 3584 3203 3211 
Q 3513 2838 3513 2113 
z
" transform="scale(0.015625)"/>
       <path id="DejaVuSans-51" d="M 2522 4238 
Q 1834 4238 1429 3725 
Q 1025 3213 1025 2328 
Q 1025 1447 1429 934 
Q 1834 422 2522 422 
Q 3209 422 3611 934 
Q 4013 1447 4013 2328 
Q 4013 3213 3611 3725 
Q 3209 4238 2522 4238 
z
M 3406 84 
L 4238 -825 
L 3475 -825 
L 2784 -78 
Q 2681 -84 2626 -87 
Q 2572 -91 2522 -91 
Q 1538 -91 948 567 
Q 359 1225 359 2328 
Q 359 3434 948 4092 
Q 1538 4750 2522 4750 
Q 3503 4750 4090 4092 
Q 4678 3434 4678 2328 
Q 4678 1516 4351 937 
Q 4025 359 3406 84 
z
" transform="scale(0.015625)"/>
       <path id="DejaVuSans-75" d="M 544 1381 
L 544 3500 
L 1119 3500 
L 1119 1403 
Q 1119 906 1312 657 
Q 1506 409 1894 409 
Q 2359 409 2629 706 
Q 2900 1003 2900 1516 
L 2900 3500 
L 3475 3500 
L 3475 0 
L 2900 0 
L 2900 538 
Q 2691 219 2414 64 
Q 2138 -91 1772 -91 
Q 1169 -91 856 284 
Q 544 659 544 1381 
z
M 1991 3584 
L 1991 3584 
z
" transform="scale(0.015625)"/>
      </defs>
      <use xlink:href="#DejaVuSans-50"/>
      <use xlink:href="#DejaVuSans-6f" x="56.677734"/>
      <use xlink:href="#DejaVuSans-69" x="117.859375"/>
      <use xlink:href="#DejaVuSans-73" x="145.642578"/>
      <use xlink:href="#DejaVuSans-73" x="197.742188"/>
      <use xlink:href="#DejaVuSans-6f" x="249.841797"/>
      <use xlink:href="#DejaVuSans-6e" x="311.023438"/>
      <use xlink:href="#DejaVuSans-20" x="374.402344"/>
      <use xlink:href="#DejaVuSans-51" x="406.189453"/>
      <use xlink:href="#DejaVuSans-75" x="484.900391"/>
      <use xlink:href="#DejaVuSans-61" x="548.279297"/>
      <use xlink:href="#DejaVuSans-6e" x="609.558594"/>
      <use xlink:href="#DejaVuSans-74" x="672.9375"/>
      <use xlink:href="#DejaVuSans-61" x="712.146484"/>
     </g>
    </g>
   </g>
   <g id="line2d_40">
    <path d="M 56.524844 396.505455 
L 57.671948 342.085 
L 58.819053 382.900341 
L 59.966158 382.900341 
L 61.113262 342.085 
L 62.260367 369.295227 
L 63.407472 355.690114 
L 64.554576 328.479886 
L 65.701681 355.690114 
L 66.848786 369.295227 
L 67.995891 355.690114 
L 69.142995 369.295227 
L 70.2901 396.505455 
L 73.731414 396.505455 
L 74.878519 382.900341 
L 76.025623 396.505455 
L 78.319833 396.505455 
L 79.466937 382.900341 
L 80.614042 396.505455 
L 81.761147 382.900341 
L 82.908251 396.505455 
L 84.055356 396.505455 
L 85.202461 382.900341 
L 87.49667 382.900341 
L 88.643775 396.505455 
L 96.673507 396.505455 
L 98.967717 369.295227 
L 100.114821 382.900341 
L 101.261926 382.900341 
L 102.409031 396.505455 
L 103.556136 369.295227 
L 104.70324 396.505455 
L 109.291659 396.505455 
L 110.438764 369.295227 
L 111.585868 396.505455 
L 113.880078 396.505455 
L 116.174287 369.295227 
L 117.321392 396.505455 
L 120.762706 396.505455 
L 121.90981 355.690114 
L 123.056915 396.505455 
L 124.20402 382.900341 
L 125.351124 396.505455 
L 128.792438 396.505455 
L 129.939543 382.900341 
L 131.086648 396.505455 
L 142.557695 396.505455 
L 143.704799 369.295227 
L 144.851904 396.505455 
L 145.999009 396.505455 
L 147.146113 355.690114 
L 148.293218 382.900341 
L 149.440323 369.295227 
L 150.587427 396.505455 
L 155.175846 396.505455 
L 156.322951 382.900341 
L 157.470055 396.505455 
L 162.058474 396.505455 
L 163.205579 382.900341 
L 164.352683 396.505455 
L 165.499788 382.900341 
L 167.793997 382.900341 
L 168.941102 396.505455 
L 175.82373 396.505455 
L 176.970835 382.900341 
L 178.11794 396.505455 
L 179.265044 396.505455 
L 180.412149 369.295227 
L 181.559254 396.505455 
L 182.706358 369.295227 
L 183.853463 396.505455 
L 187.294777 396.505455 
L 188.441882 355.690114 
L 189.588986 382.900341 
L 190.736091 396.505455 
L 205.648452 396.505455 
L 207.942661 369.295227 
L 209.089766 396.505455 
L 218.266603 396.505455 
L 219.413708 342.085 
L 220.560813 396.505455 
L 225.149231 396.505455 
L 226.296336 369.295227 
L 227.443441 396.505455 
L 230.884755 396.505455 
L 232.031859 382.900341 
L 233.178964 342.085 
L 235.473173 396.505455 
L 236.620278 396.505455 
L 237.767383 382.900341 
L 238.914487 396.505455 
L 243.502906 396.505455 
L 244.650011 369.295227 
L 245.797115 396.505455 
L 250.385534 396.505455 
L 251.532639 382.900341 
L 252.679744 396.505455 
L 254.973953 396.505455 
L 256.121058 382.900341 
L 257.268162 382.900341 
L 258.415267 369.295227 
L 259.562372 396.505455 
L 267.592104 396.505455 
L 269.886314 369.295227 
L 272.180523 396.505455 
L 274.474732 396.505455 
L 275.621837 382.900341 
L 276.768942 396.505455 
L 288.239989 396.505455 
L 289.387093 382.900341 
L 290.534198 396.505455 
L 295.122617 396.505455 
L 296.269721 382.900341 
L 297.416826 396.505455 
L 312.329187 396.505455 
L 313.476291 382.900341 
L 314.623396 396.505455 
L 319.211815 396.505455 
L 320.358919 355.690114 
L 321.506024 396.505455 
L 322.653129 396.505455 
L 323.800234 382.900341 
L 324.947338 287.664545 
L 326.094443 369.295227 
L 327.241548 369.295227 
L 329.535757 342.085 
L 330.682862 314.874773 
L 331.829966 328.479886 
L 332.977071 369.295227 
L 334.124176 355.690114 
L 335.27128 314.874773 
L 336.418385 287.664545 
L 337.56549 342.085 
L 338.712594 328.479886 
L 339.859699 382.900341 
L 341.006804 328.479886 
L 342.153908 396.505455 
L 343.301013 396.505455 
L 344.448118 369.295227 
L 345.595222 369.295227 
L 346.742327 382.900341 
L 347.889432 342.085 
L 349.036536 369.295227 
L 350.183641 355.690114 
L 351.330746 369.295227 
L 354.77206 328.479886 
L 355.919164 328.479886 
L 357.066269 396.505455 
L 358.213374 355.690114 
L 359.360478 396.505455 
L 360.507583 396.505455 
L 362.801793 342.085 
L 363.948897 342.085 
L 365.096002 328.479886 
L 366.243107 328.479886 
L 367.390211 369.295227 
L 368.537316 369.295227 
L 369.684421 342.085 
L 370.831525 396.505455 
L 371.97863 342.085 
L 373.125735 396.505455 
L 374.272839 382.900341 
L 375.419944 355.690114 
L 376.567049 355.690114 
L 377.714153 396.505455 
L 378.861258 369.295227 
L 380.008363 301.269659 
L 381.155467 355.690114 
L 382.302572 369.295227 
L 383.449677 396.505455 
L 384.596781 355.690114 
L 385.743886 382.900341 
L 386.890991 355.690114 
L 388.038095 382.900341 
L 389.1852 342.085 
L 390.332305 382.900341 
L 391.479409 342.085 
L 392.626514 342.085 
L 393.773619 396.505455 
L 394.920723 382.900341 
L 396.067828 355.690114 
L 397.214933 369.295227 
L 398.362038 328.479886 
L 399.509142 396.505455 
L 400.656247 287.664545 
L 401.803352 382.900341 
L 402.950456 396.505455 
L 404.097561 396.505455 
L 406.39177 342.085 
L 408.68598 369.295227 
L 409.833084 396.505455 
L 410.980189 369.295227 
L 413.274398 369.295227 
L 414.421503 382.900341 
L 415.568608 342.085 
L 416.715712 396.505455 
L 417.862817 396.505455 
L 419.009922 382.900341 
L 420.157026 396.505455 
L 421.304131 369.295227 
L 422.451236 396.505455 
L 423.59834 355.690114 
L 424.745445 396.505455 
L 425.89255 342.085 
L 428.186759 369.295227 
L 430.480968 369.295227 
L 431.628073 396.505455 
L 432.775178 342.085 
L 435.069387 369.295227 
L 436.216492 355.690114 
L 437.363597 355.690114 
L 438.510701 314.874773 
L 439.657806 301.269659 
L 440.804911 382.900341 
L 441.952015 369.295227 
L 443.09912 369.295227 
L 444.246225 382.900341 
L 445.393329 342.085 
L 446.540434 369.295227 
L 448.834643 396.505455 
L 451.128853 369.295227 
L 453.423062 396.505455 
L 454.570167 328.479886 
L 455.717271 355.690114 
L 456.864376 328.479886 
L 458.011481 369.295227 
L 459.158585 396.505455 
L 466.041213 396.505455 
L 467.188318 369.295227 
L 468.335423 396.505455 
L 469.482527 396.505455 
L 470.629632 382.900341 
L 471.776737 396.505455 
L 472.923842 396.505455 
L 474.070946 382.900341 
L 475.218051 396.505455 
L 478.659365 396.505455 
L 479.80647 382.900341 
L 480.953574 396.505455 
L 483.247784 396.505455 
L 484.394888 369.295227 
L 485.541993 396.505455 
L 486.689098 396.505455 
L 487.836202 355.690114 
L 488.983307 396.505455 
L 502.748563 396.505455 
L 503.895668 369.295227 
L 505.042772 396.505455 
L 513.072505 396.505455 
L 514.21961 382.900341 
L 515.366715 396.505455 
L 519.955133 396.505455 
L 521.102238 369.295227 
L 522.249343 396.505455 
L 526.837761 396.505455 
L 529.131971 369.295227 
L 530.279075 342.085 
L 531.42618 396.505455 
L 536.014599 396.505455 
L 537.161703 369.295227 
L 538.308808 369.295227 
L 539.455913 396.505455 
L 542.897227 396.505455 
L 544.044332 369.295227 
L 545.191436 396.505455 
L 547.485646 396.505455 
L 548.63275 382.900341 
L 549.779855 396.505455 
L 556.662483 396.505455 
L 560.103797 355.690114 
L 563.545111 396.505455 
L 568.13353 396.505455 
L 569.280634 355.690114 
L 569.280634 355.690114 
" clip-path="url(#pd3a75e63f2)" style="fill: none; stroke: #1f77b4; stroke-width: 1.5; stroke-linecap: square"/>
   </g>
   <g id="patch_9">
    <path d="M 56.524844 401.9475 
L 56.524844 282.2225 
" style="fill: none; stroke: #000000; stroke-width: 0.8; stroke-linejoin: miter; stroke-linecap: square"/>
   </g>
   <g id="patch_10">
    <path d="M 56.524844 401.9475 
L 571.574844 401.9475 
" style="fill: none; stroke: #000000; stroke-width: 0.8; stroke-linejoin: miter; stroke-linecap: square"/>
   </g>
  </g>
  <g id="axes_4">
   <g id="patch_11">
    <path d="M 56.524844 535.9725 
L 571.574844 535.9725 
L 571.574844 416.2475 
L 56.524844 416.2475 
z
" style="fill: #ffffff"/>
   </g>
   <g id="matplotlib.axis_7">
    <g id="xtick_25">
     <g id="line2d_41">
      <g>
       <use xlink:href="#md582e387b2" x="56.524844" y="535.9725" style="stroke: #000000; stroke-width: 0.8"/>
      </g>
     </g>
     <g id="text_17">
      <!-- 0 -->
      <g transform="translate(53.025469 551.330781)scale(0.11 -0.11)">
       <use xlink:href="#DejaVuSans-30"/>
      </g>
     </g>
    </g>
    <g id="xtick_26">
     <g id="line2d_42">
      <g>
       <use xlink:href="#md582e387b2" x="123.343691" y="535.9725" style="stroke: #000000; stroke-width: 0.8"/>
      </g>
     </g>
     <g id="text_18">
      <!-- 1 -->
      <g transform="translate(119.844316 551.330781)scale(0.11 -0.11)">
       <use xlink:href="#DejaVuSans-31"/>
      </g>
     </g>
    </g>
    <g id="xtick_27">
     <g id="line2d_43">
      <g>
       <use xlink:href="#md582e387b2" x="190.162539" y="535.9725" style="stroke: #000000; stroke-width: 0.8"/>
      </g>
     </g>
     <g id="text_19">
      <!-- 2 -->
      <g transform="translate(186.663164 551.330781)scale(0.11 -0.11)">
       <use xlink:href="#DejaVuSans-32"/>
      </g>
     </g>
    </g>
    <g id="xtick_28">
     <g id="line2d_44">
      <g>
       <use xlink:href="#md582e387b2" x="256.981386" y="535.9725" style="stroke: #000000; stroke-width: 0.8"/>
      </g>
     </g>
     <g id="text_20">
      <!-- 3 -->
      <g transform="translate(253.482011 551.330781)scale(0.11 -0.11)">
       <defs>
        <path id="DejaVuSans-33" d="M 2597 2516 
Q 3050 2419 3304 2112 
Q 3559 1806 3559 1356 
Q 3559 666 3084 287 
Q 2609 -91 1734 -91 
Q 1441 -91 1130 -33 
Q 819 25 488 141 
L 488 750 
Q 750 597 1062 519 
Q 1375 441 1716 441 
Q 2309 441 2620 675 
Q 2931 909 2931 1356 
Q 2931 1769 2642 2001 
Q 2353 2234 1838 2234 
L 1294 2234 
L 1294 2753 
L 1863 2753 
Q 2328 2753 2575 2939 
Q 2822 3125 2822 3475 
Q 2822 3834 2567 4026 
Q 2313 4219 1838 4219 
Q 1578 4219 1281 4162 
Q 984 4106 628 3988 
L 628 4550 
Q 988 4650 1302 4700 
Q 1616 4750 1894 4750 
Q 2613 4750 3031 4423 
Q 3450 4097 3450 3541 
Q 3450 3153 3228 2886 
Q 3006 2619 2597 2516 
z
" transform="scale(0.015625)"/>
       </defs>
       <use xlink:href="#DejaVuSans-33"/>
      </g>
     </g>
    </g>
    <g id="xtick_29">
     <g id="line2d_45">
      <g>
       <use xlink:href="#md582e387b2" x="323.800234" y="535.9725" style="stroke: #000000; stroke-width: 0.8"/>
      </g>
     </g>
     <g id="text_21">
      <!-- 4 -->
      <g transform="translate(320.300859 551.330781)scale(0.11 -0.11)">
       <use xlink:href="#DejaVuSans-34"/>
      </g>
     </g>
    </g>
    <g id="xtick_30">
     <g id="line2d_46">
      <g>
       <use xlink:href="#md582e387b2" x="390.619081" y="535.9725" style="stroke: #000000; stroke-width: 0.8"/>
      </g>
     </g>
     <g id="text_22">
      <!-- 5 -->
      <g transform="translate(387.119706 551.330781)scale(0.11 -0.11)">
       <use xlink:href="#DejaVuSans-35"/>
      </g>
     </g>
    </g>
    <g id="xtick_31">
     <g id="line2d_47">
      <g>
       <use xlink:href="#md582e387b2" x="457.437928" y="535.9725" style="stroke: #000000; stroke-width: 0.8"/>
      </g>
     </g>
     <g id="text_23">
      <!-- 6 -->
      <g transform="translate(453.938553 551.330781)scale(0.11 -0.11)">
       <use xlink:href="#DejaVuSans-36"/>
      </g>
     </g>
    </g>
    <g id="xtick_32">
     <g id="line2d_48">
      <g>
       <use xlink:href="#md582e387b2" x="524.256776" y="535.9725" style="stroke: #000000; stroke-width: 0.8"/>
      </g>
     </g>
     <g id="text_24">
      <!-- 7 -->
      <g transform="translate(520.757401 551.330781)scale(0.11 -0.11)">
       <defs>
        <path id="DejaVuSans-37" d="M 525 4666 
L 3525 4666 
L 3525 4397 
L 1831 0 
L 1172 0 
L 2766 4134 
L 525 4134 
L 525 4666 
z
" transform="scale(0.015625)"/>
       </defs>
       <use xlink:href="#DejaVuSans-37"/>
      </g>
     </g>
    </g>
    <g id="text_25">
     <!-- Time (s) -->
     <g transform="translate(289.655156 566.736562)scale(0.12 -0.12)">
      <defs>
       <path id="DejaVuSans-54" d="M -19 4666 
L 3928 4666 
L 3928 4134 
L 2272 4134 
L 2272 0 
L 1638 0 
L 1638 4134 
L -19 4134 
L -19 4666 
z
" transform="scale(0.015625)"/>
       <path id="DejaVuSans-6d" d="M 3328 2828 
Q 3544 3216 3844 3400 
Q 4144 3584 4550 3584 
Q 5097 3584 5394 3201 
Q 5691 2819 5691 2113 
L 5691 0 
L 5113 0 
L 5113 2094 
Q 5113 2597 4934 2840 
Q 4756 3084 4391 3084 
Q 3944 3084 3684 2787 
Q 3425 2491 3425 1978 
L 3425 0 
L 2847 0 
L 2847 2094 
Q 2847 2600 2669 2842 
Q 2491 3084 2119 3084 
Q 1678 3084 1418 2786 
Q 1159 2488 1159 1978 
L 1159 0 
L 581 0 
L 581 3500 
L 1159 3500 
L 1159 2956 
Q 1356 3278 1631 3431 
Q 1906 3584 2284 3584 
Q 2666 3584 2933 3390 
Q 3200 3197 3328 2828 
z
" transform="scale(0.015625)"/>
       <path id="DejaVuSans-28" d="M 1984 4856 
Q 1566 4138 1362 3434 
Q 1159 2731 1159 2009 
Q 1159 1288 1364 580 
Q 1569 -128 1984 -844 
L 1484 -844 
Q 1016 -109 783 600 
Q 550 1309 550 2009 
Q 550 2706 781 3412 
Q 1013 4119 1484 4856 
L 1984 4856 
z
" transform="scale(0.015625)"/>
       <path id="DejaVuSans-29" d="M 513 4856 
L 1013 4856 
Q 1481 4119 1714 3412 
Q 1947 2706 1947 2009 
Q 1947 1309 1714 600 
Q 1481 -109 1013 -844 
L 513 -844 
Q 928 -128 1133 580 
Q 1338 1288 1338 2009 
Q 1338 2731 1133 3434 
Q 928 4138 513 4856 
z
" transform="scale(0.015625)"/>
      </defs>
      <use xlink:href="#DejaVuSans-54"/>
      <use xlink:href="#DejaVuSans-69" x="57.958984"/>
      <use xlink:href="#DejaVuSans-6d" x="85.742188"/>
      <use xlink:href="#DejaVuSans-65" x="183.154297"/>
      <use xlink:href="#DejaVuSans-20" x="244.677734"/>
      <use xlink:href="#DejaVuSans-28" x="276.464844"/>
      <use xlink:href="#DejaVuSans-73" x="315.478516"/>
      <use xlink:href="#DejaVuSans-29" x="367.578125"/>
     </g>
    </g>
   </g>
   <g id="matplotlib.axis_8">
    <g id="ytick_14">
     <g id="line2d_49">
      <g>
       <use xlink:href="#mef86bbe14e" x="56.524844" y="515.991327" style="stroke: #000000; stroke-width: 0.8"/>
      </g>
     </g>
     <g id="text_26">
      <!-- 0 -->
      <g transform="translate(42.526094 520.170468)scale(0.11 -0.11)">
       <use xlink:href="#DejaVuSans-30"/>
      </g>
     </g>
    </g>
    <g id="ytick_15">
     <g id="line2d_50">
      <g>
       <use xlink:href="#mef86bbe14e" x="56.524844" y="476.178609" style="stroke: #000000; stroke-width: 0.8"/>
      </g>
     </g>
     <g id="text_27">
      <!-- 1 -->
      <g transform="translate(42.526094 480.357749)scale(0.11 -0.11)">
       <use xlink:href="#DejaVuSans-31"/>
      </g>
     </g>
    </g>
    <g id="ytick_16">
     <g id="line2d_51">
      <g>
       <use xlink:href="#mef86bbe14e" x="56.524844" y="436.36589" style="stroke: #000000; stroke-width: 0.8"/>
      </g>
     </g>
     <g id="text_28">
      <!-- 2 -->
      <g transform="translate(42.526094 440.54503)scale(0.11 -0.11)">
       <use xlink:href="#DejaVuSans-32"/>
      </g>
     </g>
    </g>
    <g id="text_29">
     <!-- df/F -->
     <g transform="translate(36.030469 487.503437)rotate(-90)scale(0.12 -0.12)">
      <defs>
       <path id="DejaVuSans-66" d="M 2375 4863 
L 2375 4384 
L 1825 4384 
Q 1516 4384 1395 4259 
Q 1275 4134 1275 3809 
L 1275 3500 
L 2222 3500 
L 2222 3053 
L 1275 3053 
L 1275 0 
L 697 0 
L 697 3053 
L 147 3053 
L 147 3500 
L 697 3500 
L 697 3744 
Q 697 4328 969 4595 
Q 1241 4863 1831 4863 
L 2375 4863 
z
" transform="scale(0.015625)"/>
      </defs>
      <use xlink:href="#DejaVuSans-64"/>
      <use xlink:href="#DejaVuSans-66" x="63.476562"/>
      <use xlink:href="#DejaVuSans-2f" x="98.681641"/>
      <use xlink:href="#DejaVuSans-46" x="132.373047"/>
     </g>
    </g>
   </g>
   <g id="line2d_52">
    <path d="M 56.524844 515.04017 
L 57.671948 512.458458 
L 58.819053 502.946889 
L 59.966158 499.957551 
L 61.113262 500.772796 
L 62.260367 488.951285 
L 63.407472 483.787854 
L 64.554576 483.923735 
L 65.701681 469.384568 
L 66.848786 465.851587 
L 67.995891 470.607615 
L 69.142995 470.607615 
L 70.2901 481.613801 
L 71.437205 494.522359 
L 72.584309 498.326981 
L 73.731414 503.490412 
L 74.878519 505.528585 
L 76.025623 502.403366 
L 77.172728 505.800346 
L 78.319833 512.322577 
L 79.466937 514.496646 
L 80.614042 510.963777 
L 81.761147 506.615631 
L 82.908251 508.925605 
L 84.055356 513.953135 
L 85.202461 519.660073 
L 86.349565 515.04017 
L 87.49667 505.800346 
L 88.643775 507.430916 
L 90.937984 522.785288 
L 92.085089 520.339473 
L 93.232193 512.730216 
L 94.379298 513.817254 
L 95.526403 520.611235 
L 96.673507 519.795954 
L 97.820612 521.834162 
L 98.967717 518.437162 
L 100.114821 509.604969 
L 101.261926 510.692016 
L 102.409031 509.469088 
L 103.556136 500.772796 
L 104.70324 501.316319 
L 105.850345 511.779062 
L 106.99745 513.001973 
L 108.144554 516.263085 
L 109.291659 516.942485 
L 110.438764 512.05082 
L 111.585868 509.197367 
L 112.732973 520.067712 
L 113.880078 515.99133 
L 115.027182 509.876771 
L 116.174287 495.065882 
L 117.321392 493.435312 
L 118.468496 501.316319 
L 119.615601 516.127207 
L 120.762706 525.095262 
L 121.90981 526.318189 
L 123.056915 511.235539 
L 124.20402 505.120942 
L 125.351124 500.365154 
L 126.498229 504.985061 
L 127.645334 517.621881 
L 128.792438 524.68762 
L 131.086648 515.447808 
L 132.233752 514.089012 
L 133.380857 518.02952 
L 134.527962 522.377686 
L 135.675066 521.562401 
L 136.822171 518.437162 
L 137.969276 521.018878 
L 139.11638 524.415858 
L 140.263485 526.318189 
L 141.41059 524.279977 
L 142.557695 521.698282 
L 143.704799 522.921169 
L 144.851904 518.573043 
L 145.999009 515.176054 
L 147.146113 516.398966 
L 148.293218 510.827896 
L 149.440323 510.827896 
L 150.587427 509.876731 
L 151.734532 510.827896 
L 152.881637 514.632531 
L 154.028741 519.931835 
L 155.175846 519.931835 
L 156.322951 519.660073 
L 157.470055 512.322581 
L 158.61716 513.817254 
L 160.911369 511.099658 
L 162.058474 511.235539 
L 163.205579 512.458458 
L 164.352683 508.925605 
L 165.499788 511.779062 
L 166.646893 509.333247 
L 168.941102 510.148492 
L 170.088207 513.273735 
L 171.235311 519.795958 
L 172.382416 523.872335 
L 173.529521 526.725832 
L 174.676625 526.318189 
L 175.82373 523.328811 
L 176.970835 519.116562 
L 178.11794 513.001977 
L 179.265044 513.273735 
L 180.412149 515.719567 
L 181.559254 512.458458 
L 182.706358 516.398966 
L 183.853463 514.089012 
L 185.000568 513.409616 
L 186.147672 528.899885 
L 187.294777 529.85105 
L 189.588986 512.866093 
L 190.736091 500.908677 
L 191.883196 499.82167 
L 193.0303 511.099658 
L 194.177405 512.458458 
L 195.32451 518.844797 
L 196.471614 519.388316 
L 197.618719 524.8235 
L 198.765824 523.600573 
L 199.912928 518.8448 
L 201.060033 511.099658 
L 202.207138 510.827896 
L 203.354242 509.604969 
L 205.648452 523.736454 
L 206.795556 522.241805 
L 207.942661 516.398966 
L 209.089766 506.072108 
L 210.23687 503.762174 
L 211.383975 503.762174 
L 212.53108 514.904297 
L 213.678185 518.301281 
L 214.825289 520.339473 
L 215.972394 523.328811 
L 217.119499 525.774666 
L 218.266603 519.524197 
L 219.413708 516.127211 
L 220.560813 503.08277 
L 221.707917 506.751512 
L 224.002127 515.719567 
L 225.149231 515.991325 
L 226.296336 516.127207 
L 227.443441 508.11032 
L 228.590545 513.273735 
L 230.884755 522.105924 
L 232.031859 522.649407 
L 234.326069 509.876731 
L 235.473173 508.789724 
L 236.620278 509.469088 
L 237.767383 513.273735 
L 238.914487 514.224889 
L 240.061592 513.545493 
L 241.208697 511.779062 
L 242.355801 517.078366 
L 243.502906 519.116558 
L 244.650011 518.1654 
L 245.797115 512.186701 
L 249.238429 519.388316 
L 250.385534 524.279977 
L 251.532639 521.42652 
L 252.679744 511.5073 
L 253.826848 511.099658 
L 254.973953 517.078366 
L 256.121058 517.621885 
L 257.268162 515.311931 
L 258.415267 511.914943 
L 259.562372 507.295035 
L 260.709476 508.382082 
L 261.856581 511.235539 
L 263.003686 518.708924 
L 265.297895 512.186701 
L 266.445 520.203593 
L 267.592104 525.638785 
L 268.739209 522.377686 
L 269.886314 517.486 
L 271.033418 508.11032 
L 272.180523 506.207989 
L 273.327628 510.827896 
L 274.474732 511.643181 
L 275.621837 514.768412 
L 276.768942 512.866101 
L 277.916046 512.05082 
L 280.210256 522.649447 
L 281.35736 522.921169 
L 282.504465 529.579289 
L 283.65157 528.492242 
L 284.798674 524.279977 
L 285.945779 522.921169 
L 287.092884 525.638785 
L 288.239989 524.415858 
L 289.387093 527.133434 
L 290.534198 519.116558 
L 291.681303 512.458458 
L 293.975512 524.279977 
L 295.122617 522.513566 
L 296.269721 521.42652 
L 297.416826 517.350128 
L 298.563931 516.398962 
L 299.711035 517.214243 
L 300.85814 514.904289 
L 302.005245 511.099658 
L 303.152349 510.963777 
L 304.299454 523.05705 
L 305.446559 524.8235 
L 306.593663 529.171646 
L 307.740768 525.910547 
L 308.887873 525.502904 
L 310.034977 526.182308 
L 311.182082 530.258693 
L 312.329187 521.154758 
L 313.476291 523.192931 
L 314.623396 518.02952 
L 315.770501 519.795954 
L 316.917605 525.774666 
L 318.06471 525.095262 
L 319.211815 530.530455 
L 320.358919 527.133434 
L 321.506024 517.893643 
L 322.653129 512.186701 
L 323.800234 505.800346 
L 324.947338 495.337643 
L 326.094443 489.087166 
L 327.241548 472.237946 
L 328.388652 463.541653 
L 329.535757 460.552515 
L 330.682862 454.437679 
L 331.829966 458.786024 
L 332.977071 459.329468 
L 334.124176 458.650263 
L 335.27128 476.042847 
L 336.418385 472.509867 
L 337.56549 462.454766 
L 338.712594 461.23172 
L 339.859699 462.047084 
L 341.006804 470.335694 
L 342.153908 485.554305 
L 343.301013 476.586251 
L 344.448118 488.407762 
L 345.595222 483.516093 
L 346.742327 481.34204 
L 347.889432 482.836728 
L 349.036536 482.429086 
L 350.183641 469.248807 
L 351.330746 476.45037 
L 352.47785 473.325231 
L 353.624955 466.666952 
L 354.77206 460.688276 
L 355.919164 462.454766 
L 357.066269 446.828672 
L 358.213374 451.720461 
L 359.360478 468.569204 
L 360.507583 471.558741 
L 362.801793 500.093432 
L 363.948897 485.961947 
L 365.096002 479.847351 
L 366.243107 476.722132 
L 367.390211 470.471853 
L 368.537316 479.167947 
L 369.684421 480.390874 
L 370.831525 474.8198 
L 371.97863 475.635165 
L 373.125735 483.787854 
L 374.272839 485.282543 
L 375.419944 490.717736 
L 376.567049 494.522359 
L 377.714153 496.560531 
L 378.861258 493.571193 
L 380.008363 482.293205 
L 381.155467 474.412118 
L 382.302572 472.645628 
L 383.449677 480.526755 
L 384.596781 486.50547 
L 385.743886 488.679524 
L 386.890991 484.059616 
L 388.038095 484.603139 
L 389.1852 484.059616 
L 390.332305 483.923735 
L 391.479409 483.516093 
L 392.626514 480.662635 
L 393.773619 476.042847 
L 394.920723 475.770926 
L 396.067828 482.836689 
L 397.214933 486.233709 
L 398.362038 486.097828 
L 399.509142 483.10845 
L 400.656247 474.54788 
L 401.803352 471.28682 
L 402.950456 470.335694 
L 405.244666 488.815404 
L 406.39177 490.310093 
L 407.538875 486.777232 
L 408.68598 475.227483 
L 409.833084 467.210396 
L 410.980189 470.471853 
L 412.127294 482.564967 
L 413.274398 488.951285 
L 414.421503 490.581855 
L 415.568608 490.853617 
L 416.715712 490.038332 
L 417.862817 487.592517 
L 419.009922 501.044558 
L 420.157026 506.751512 
L 421.304131 503.626293 
L 422.451236 504.577459 
L 423.59834 499.006385 
L 424.745445 489.902451 
L 425.89255 489.76657 
L 427.039654 498.462862 
L 428.186759 490.581855 
L 429.333864 483.516093 
L 430.480968 485.554305 
L 431.628073 489.087166 
L 432.775178 489.358928 
L 433.922283 504.033936 
L 435.069387 493.16355 
L 436.216492 484.73902 
L 437.363597 482.836728 
L 438.510701 485.146662 
L 439.657806 472.781787 
L 440.804911 467.618078 
L 441.952015 465.851587 
L 443.09912 472.645628 
L 444.246225 480.390874 
L 445.393329 479.167947 
L 446.540434 476.45037 
L 447.687539 473.189072 
L 448.834643 480.390874 
L 449.981748 494.250597 
L 451.128853 502.131604 
L 452.275957 493.435312 
L 453.423062 491.39714 
L 454.570167 489.087166 
L 455.717271 492.755908 
L 456.864376 487.864239 
L 458.011481 485.554305 
L 459.158585 481.206159 
L 460.30569 482.700848 
L 461.452795 489.630689 
L 462.599899 501.859843 
L 463.747004 509.333247 
L 464.894109 525.502904 
L 466.041213 523.328811 
L 467.188318 521.562401 
L 468.335423 514.224889 
L 469.482527 504.71334 
L 470.629632 510.284373 
L 471.776737 513.001973 
L 472.923842 503.898055 
L 474.070946 508.789724 
L 475.218051 511.235539 
L 476.365156 511.779062 
L 477.51226 520.339473 
L 478.659365 521.834162 
L 479.80647 512.05082 
L 480.953574 513.953131 
L 482.100679 512.594343 
L 483.247784 518.02952 
L 484.394888 526.997554 
L 485.541993 528.0846 
L 486.689098 514.768412 
L 487.836202 516.263085 
L 488.983307 513.681374 
L 490.130412 512.866093 
L 491.277516 513.273731 
L 492.424621 509.604969 
L 493.571726 508.382082 
L 494.71883 521.42652 
L 495.865935 527.405196 
L 497.01304 526.318189 
L 498.160144 518.980677 
L 499.307249 515.991327 
L 500.454354 514.360774 
L 501.601458 516.534847 
L 502.748563 520.611235 
L 503.895668 518.029524 
L 505.042772 509.604969 
L 506.189877 509.876731 
L 507.336982 513.817254 
L 508.484087 519.524197 
L 509.631191 527.676958 
L 510.778296 526.182308 
L 513.072505 521.018878 
L 514.21961 519.931839 
L 515.366715 521.154758 
L 516.513819 516.398966 
L 517.660924 516.806604 
L 518.808029 518.301277 
L 519.955133 516.127207 
L 521.102238 512.866093 
L 522.249343 513.001977 
L 523.396447 506.47975 
L 524.543552 509.469088 
L 525.690657 510.963777 
L 526.837761 519.524197 
L 527.984866 519.931839 
L 529.131971 521.562401 
L 530.279075 514.089012 
L 531.42618 508.925605 
L 532.573285 505.800346 
L 533.720389 515.447808 
L 536.014599 526.45407 
L 537.161703 526.589951 
L 538.308808 523.736454 
L 539.455913 514.496654 
L 540.603017 511.914943 
L 541.750122 516.127211 
L 542.897227 517.350124 
L 544.044332 516.534843 
L 545.191436 518.02952 
L 546.338541 514.36077 
L 547.485646 519.931831 
L 548.63275 528.0846 
L 549.779855 526.997593 
L 550.92696 516.670723 
L 552.074064 515.17605 
L 553.221169 512.458454 
L 554.368274 513.137854 
L 555.515378 519.116558 
L 556.662483 517.350124 
L 557.809588 515.040174 
L 558.956692 517.214251 
L 560.103797 509.333247 
L 561.250902 506.751512 
L 562.398006 501.723962 
L 563.545111 502.131604 
L 564.692216 504.577459 
L 565.83932 510.827896 
L 566.986425 515.04017 
L 568.13353 522.649447 
L 569.280634 519.388316 
L 570.427739 526.182308 
L 570.427739 526.182308 
" clip-path="url(#p4a622d2687)" style="fill: none; stroke: #1f77b4; stroke-width: 1.5; stroke-linecap: square"/>
   </g>
   <g id="line2d_53">
    <path d="M 56.524844 515.991327 
L 57.671948 515.991327 
L 58.819053 494.258684 
L 59.966158 498.291311 
L 61.113262 500.569797 
L 62.260367 485.555965 
L 63.407472 487.947583 
L 64.554576 483.865941 
L 65.701681 470.695509 
L 66.848786 474.128293 
L 67.995891 481.500458 
L 69.142995 480.228108 
L 70.2901 484.94232 
L 71.437205 498.469684 
L 72.584309 506.104623 
L 73.731414 510.412688 
L 74.878519 512.843543 
L 76.025623 508.782008 
L 77.172728 511.922404 
L 78.319833 513.69541 
L 79.466937 514.695841 
L 80.614042 509.827179 
L 81.761147 512.512148 
L 82.908251 508.595015 
L 84.055356 511.816892 
L 85.202461 513.635873 
L 86.349565 509.229085 
L 87.49667 506.741509 
L 88.643775 505.337877 
L 89.790879 509.97903 
L 90.937984 512.598847 
L 92.085089 514.077098 
L 93.232193 514.91121 
L 94.379298 515.381863 
L 95.526403 515.647432 
L 97.820612 515.881836 
L 98.967717 510.496385 
L 100.114821 502.02343 
L 101.261926 502.674654 
L 102.409031 503.043127 
L 103.556136 508.684202 
L 104.70324 501.001911 
L 105.850345 507.531416 
L 106.99745 511.217765 
L 108.144554 513.297813 
L 109.291659 514.471494 
L 110.438764 515.133751 
L 111.585868 504.641113 
L 112.732973 509.584859 
L 113.880078 512.376435 
L 115.027182 513.9516 
L 116.174287 509.407237 
L 117.321392 501.408872 
L 118.468496 507.761046 
L 119.615601 511.347335 
L 120.762706 513.370924 
L 121.90981 514.512747 
L 123.056915 498.857546 
L 124.20402 506.320426 
L 125.351124 505.101295 
L 126.498229 509.845538 
L 127.645334 512.523525 
L 128.792438 514.034596 
L 129.939543 514.887228 
L 131.086648 509.935171 
L 132.233752 512.573084 
L 133.380857 514.06256 
L 134.527962 514.903008 
L 135.675066 515.377235 
L 136.822171 515.644822 
L 139.11638 515.881005 
L 143.704799 515.980144 
L 144.851904 505.118695 
L 145.999009 509.854339 
L 147.146113 512.52849 
L 148.293218 497.737915 
L 149.440323 500.255507 
L 150.587427 496.244946 
L 151.734532 504.847267 
L 152.881637 509.703216 
L 154.028741 512.443219 
L 155.175846 513.989283 
L 156.322951 514.86166 
L 157.470055 509.920744 
L 158.61716 512.564944 
L 159.764265 514.057968 
L 160.911369 514.900416 
L 162.058474 515.375774 
L 163.205579 515.643997 
L 164.352683 510.362183 
L 165.499788 512.814028 
L 166.646893 508.765354 
L 167.793997 506.479846 
L 168.941102 505.190233 
L 170.088207 509.89572 
L 171.235311 512.55184 
L 172.382416 514.050573 
L 173.529521 514.896244 
L 174.676625 515.373419 
L 175.82373 515.642668 
L 176.970835 515.794594 
L 178.11794 510.447159 
L 179.265044 512.861976 
L 180.412149 514.22557 
L 181.559254 504.128665 
L 182.706358 509.295708 
L 183.853463 501.346957 
L 185.000568 507.72611 
L 186.147672 511.327623 
L 187.294777 513.359801 
L 188.441882 514.506471 
L 189.588986 498.854004 
L 190.736091 500.885268 
L 191.883196 507.466615 
L 193.0303 511.181202 
L 194.177405 513.277182 
L 195.32451 514.459853 
L 196.471614 515.127182 
L 197.618719 515.503727 
L 199.912928 515.836083 
L 203.354242 515.963437 
L 206.795556 515.986317 
L 207.942661 510.555339 
L 209.089766 502.056696 
L 210.23687 508.126585 
L 211.383975 511.553593 
L 212.53108 513.487306 
L 213.678185 514.578417 
L 214.825289 515.194083 
L 215.972394 515.541476 
L 218.266603 515.848102 
L 219.413708 515.910511 
L 220.560813 494.213083 
L 221.707917 503.698741 
L 222.855022 509.055152 
L 224.002127 512.077544 
L 225.149231 513.782949 
L 226.296336 514.745235 
L 227.443441 504.421889 
L 228.590545 509.461161 
L 229.73765 512.306637 
L 230.884755 513.912217 
L 232.031859 514.818176 
L 233.178964 509.896207 
L 234.326069 490.818455 
L 235.473173 490.916977 
L 236.620278 501.840924 
L 237.767383 508.006868 
L 238.914487 506.052882 
L 240.061592 510.382476 
L 241.208697 512.826495 
L 242.355801 514.205549 
L 243.502906 514.983691 
L 244.650011 515.422762 
L 245.797115 504.804189 
L 246.94422 509.676876 
L 248.091325 512.428356 
L 249.238429 513.980897 
L 250.385534 514.856928 
L 251.532639 515.351235 
L 252.679744 510.196989 
L 253.826848 512.720816 
L 254.973953 514.145919 
L 256.121058 514.950044 
L 257.268162 509.970615 
L 258.415267 507.159922 
L 259.562372 500.140809 
L 260.709476 507.045533 
L 261.856581 510.943603 
L 263.003686 513.143115 
L 264.15079 514.384204 
L 265.297895 515.084497 
L 266.445 515.479642 
L 268.739209 515.828414 
L 269.886314 510.466241 
L 271.033418 502.006422 
L 272.180523 502.665057 
L 273.327628 508.470873 
L 274.474732 511.747861 
L 275.621837 513.596923 
L 276.768942 509.207107 
L 277.916046 512.162269 
L 279.063151 513.830755 
L 280.210256 514.77221 
L 281.35736 515.303433 
L 282.504465 515.603178 
L 284.798674 515.867746 
L 289.387093 515.9788 
L 290.534198 510.551097 
L 291.681303 512.920624 
L 292.828407 514.258662 
L 293.975512 515.01366 
L 295.122617 515.439672 
L 296.269721 515.680052 
L 297.416826 510.382527 
L 298.563931 512.825508 
L 299.711035 514.204992 
L 300.85814 514.983376 
L 302.005245 515.422584 
L 304.299454 515.810247 
L 307.740768 515.958796 
L 313.476291 515.989467 
L 314.623396 510.557116 
L 315.770501 512.924021 
L 316.917605 514.260579 
L 318.06471 515.014741 
L 319.211815 515.440282 
L 320.358919 515.680396 
L 321.506024 499.5164 
L 322.653129 506.69219 
L 323.800234 510.744226 
L 324.947338 507.597455 
L 326.094443 467.788725 
L 327.241548 477.918232 
L 328.388652 467.34049 
L 329.535757 488.534684 
L 330.682862 478.766089 
L 331.829966 462.383706 
L 332.977071 458.570964 
L 334.124176 456.420614 
L 335.27128 482.373072 
L 336.418385 464.423036 
L 337.56549 421.689545 
L 338.712594 462.768716 
L 339.859699 458.794307 
L 341.006804 478.279282 
L 342.153908 467.545233 
L 343.301013 488.650211 
L 344.448118 500.563918 
L 345.595222 496.419986 
L 346.742327 494.079713 
L 347.889432 498.192357 
L 349.036536 473.348157 
L 350.183641 491.923533 
L 351.330746 486.111429 
L 352.47785 488.262022 
L 353.624955 484.043365 
L 354.77206 476.22878 
L 355.919164 466.385172 
L 357.066269 460.829832 
L 358.213374 484.861001 
L 359.360478 482.126348 
L 360.507583 496.879737 
L 361.654688 505.207481 
L 362.801793 499.040148 
L 363.948897 484.691833 
L 365.096002 476.593668 
L 366.243107 466.591062 
L 367.390211 460.946009 
L 368.537316 474.060232 
L 369.684421 481.46307 
L 370.831525 474.773849 
L 371.97863 492.730022 
L 373.125735 481.133335 
L 374.272839 496.318405 
L 375.419944 499.457587 
L 376.567049 490.361554 
L 377.714153 485.227024 
L 378.861258 498.629312 
L 380.008363 495.328372 
L 381.155467 466.297956 
L 382.302572 471.644911 
L 383.449677 480.099191 
L 384.596781 495.736916 
L 385.743886 488.263156 
L 386.890991 494.90931 
L 388.038095 487.795156 
L 389.1852 494.645238 
L 390.332305 482.212992 
L 391.479409 491.494449 
L 392.626514 480.435138 
L 393.773619 474.1918 
L 394.920723 492.401597 
L 396.067828 497.247501 
L 397.214933 489.114499 
L 398.362038 489.956524 
L 399.509142 474.133177 
L 400.656247 492.367501 
L 401.803352 459.196137 
L 402.950456 478.502968 
L 404.097561 494.837252 
L 405.244666 504.054997 
L 406.39177 498.389851 
L 407.538875 484.324899 
L 408.68598 481.819784 
L 409.833084 485.840432 
L 410.980189 498.97645 
L 412.127294 495.524246 
L 413.274398 493.574285 
L 414.421503 492.474004 
L 415.568608 497.286326 
L 416.715712 483.703243 
L 417.862817 497.768494 
L 419.009922 505.70897 
L 420.157026 504.756277 
L 421.304131 509.650857 
L 422.451236 501.547352 
L 423.59834 507.839184 
L 424.745445 495.091942 
L 425.89255 504.19566 
L 427.039654 487.602898 
L 428.186759 483.669417 
L 429.333864 486.8841 
L 430.480968 488.699024 
L 431.628073 489.723107 
L 432.775178 501.167274 
L 433.922283 485.894111 
L 435.069387 482.705222 
L 436.216492 486.340048 
L 437.363597 482.958878 
L 438.510701 481.050015 
L 439.657806 463.673442 
L 440.804911 448.432385 
L 441.952015 472.430463 
L 443.09912 480.544479 
L 444.246225 485.121851 
L 445.393329 493.137825 
L 446.540434 481.362424 
L 447.687539 485.581348 
L 448.834643 493.397098 
L 449.981748 503.241366 
L 451.128853 503.363915 
L 452.275957 497.998887 
L 453.423062 500.403777 
L 454.570167 507.19493 
L 455.717271 483.862096 
L 456.864376 481.557628 
L 458.011481 469.393026 
L 459.158585 478.826518 
L 460.30569 495.0188 
L 461.452795 504.157438 
L 462.599899 509.313975 
L 463.747004 512.223585 
L 464.894109 513.865353 
L 466.041213 514.791731 
L 467.188318 515.314447 
L 468.335423 504.743071 
L 469.482527 509.64239 
L 470.629632 512.408895 
L 471.776737 508.536755 
L 472.923842 511.784017 
L 474.070946 513.617324 
L 475.218051 509.218618 
L 476.365156 512.168763 
L 477.51226 513.834419 
L 478.659365 514.774277 
L 479.80647 515.304598 
L 480.953574 510.170675 
L 482.100679 512.705968 
L 483.247784 514.137541 
L 484.394888 514.945316 
L 485.541993 504.534786 
L 486.689098 509.524864 
L 487.836202 512.342581 
L 488.983307 497.633015 
L 490.130412 505.629477 
L 491.277516 510.144583 
L 492.424621 512.692263 
L 493.571726 514.129808 
L 494.71883 514.940953 
L 495.865935 515.398646 
L 498.160144 515.802626 
L 501.601458 515.957427 
L 503.895668 515.980534 
L 505.042772 505.118915 
L 506.189877 509.854463 
L 507.336982 512.52856 
L 508.484087 514.037438 
L 509.631191 514.888832 
L 510.778296 515.369237 
L 511.925401 515.640308 
L 514.21961 515.879568 
L 515.366715 510.495106 
L 516.513819 512.889031 
L 517.660924 514.240835 
L 518.808029 515.003601 
L 519.955133 515.433996 
L 521.102238 515.676849 
L 522.249343 504.947559 
L 523.396447 509.757774 
L 524.543552 512.474003 
L 525.690657 514.006654 
L 526.837761 514.871462 
L 527.984866 515.359436 
L 529.131971 510.201617 
L 530.279075 501.857106 
L 531.42618 486.281322 
L 532.573285 499.223192 
L 533.720389 506.529794 
L 534.867494 510.652594 
L 536.014599 512.978912 
L 537.161703 514.291551 
L 538.308808 504.165895 
L 539.455913 498.450393 
L 540.603017 506.091705 
L 541.750122 510.405399 
L 542.897227 512.83943 
L 544.044332 514.212848 
L 545.191436 504.121487 
L 546.338541 509.291656 
L 547.485646 512.210993 
L 548.63275 513.858249 
L 549.779855 509.354562 
L 550.92696 512.245471 
L 552.074064 513.877703 
L 553.221169 514.7987 
L 554.368274 515.31838 
L 555.515378 515.611612 
L 557.809588 515.870431 
L 558.956692 510.48995 
L 560.103797 502.0198 
L 561.250902 491.806283 
L 562.398006 491.475382 
L 563.545111 496.722847 
L 564.692216 505.117941 
L 565.83932 509.855947 
L 566.986425 512.529397 
L 568.13353 514.03791 
L 569.280634 514.889098 
L 570.427739 499.069905 
L 571.574844 506.440252 
L 572.721948 510.602069 
L 573.869053 512.950402 
L 575.016158 514.275465 
L 576.163262 515.02314 
L 577.310367 515.445021 
L 579.604576 515.817391 
L 579.774844 515.828641 
L 579.774844 515.828641 
" clip-path="url(#p4a622d2687)" style="fill: none; stroke: #ff7f0e; stroke-opacity: 0.75; stroke-width: 1.5; stroke-linecap: square"/>
   </g>
   <g id="patch_12">
    <path d="M 56.524844 535.9725 
L 56.524844 416.2475 
" style="fill: none; stroke: #000000; stroke-width: 0.8; stroke-linejoin: miter; stroke-linecap: square"/>
   </g>
   <g id="patch_13">
    <path d="M 56.524844 535.9725 
L 571.574844 535.9725 
" style="fill: none; stroke: #000000; stroke-width: 0.8; stroke-linejoin: miter; stroke-linecap: square"/>
   </g>
   <g id="legend_1">
    <g id="patch_14">
     <path d="M 467.468594 453.60375 
L 564.574844 453.60375 
Q 566.574844 453.60375 566.574844 451.60375 
L 566.574844 423.2475 
Q 566.574844 421.2475 564.574844 421.2475 
L 467.468594 421.2475 
Q 465.468594 421.2475 465.468594 423.2475 
L 465.468594 451.60375 
Q 465.468594 453.60375 467.468594 453.60375 
z
" style="fill: #ffffff; opacity: 0.8; stroke: #cccccc; stroke-linejoin: miter"/>
    </g>
    <g id="line2d_54">
     <path d="M 469.468594 429.345937 
L 479.468594 429.345937 
L 489.468594 429.345937 
" style="fill: none; stroke: #1f77b4; stroke-width: 1.5; stroke-linecap: square"/>
    </g>
    <g id="text_30">
     <!-- iGluSnFR -->
     <g transform="translate(497.468594 432.845937)scale(0.1 -0.1)">
      <defs>
       <path id="DejaVuSans-47" d="M 3809 666 
L 3809 1919 
L 2778 1919 
L 2778 2438 
L 4434 2438 
L 4434 434 
Q 4069 175 3628 42 
Q 3188 -91 2688 -91 
Q 1594 -91 976 548 
Q 359 1188 359 2328 
Q 359 3472 976 4111 
Q 1594 4750 2688 4750 
Q 3144 4750 3555 4637 
Q 3966 4525 4313 4306 
L 4313 3634 
Q 3963 3931 3569 4081 
Q 3175 4231 2741 4231 
Q 1884 4231 1454 3753 
Q 1025 3275 1025 2328 
Q 1025 1384 1454 906 
Q 1884 428 2741 428 
Q 3075 428 3337 486 
Q 3600 544 3809 666 
z
" transform="scale(0.015625)"/>
       <path id="DejaVuSans-53" d="M 3425 4513 
L 3425 3897 
Q 3066 4069 2747 4153 
Q 2428 4238 2131 4238 
Q 1616 4238 1336 4038 
Q 1056 3838 1056 3469 
Q 1056 3159 1242 3001 
Q 1428 2844 1947 2747 
L 2328 2669 
Q 3034 2534 3370 2195 
Q 3706 1856 3706 1288 
Q 3706 609 3251 259 
Q 2797 -91 1919 -91 
Q 1588 -91 1214 -16 
Q 841 59 441 206 
L 441 856 
Q 825 641 1194 531 
Q 1563 422 1919 422 
Q 2459 422 2753 634 
Q 3047 847 3047 1241 
Q 3047 1584 2836 1778 
Q 2625 1972 2144 2069 
L 1759 2144 
Q 1053 2284 737 2584 
Q 422 2884 422 3419 
Q 422 4038 858 4394 
Q 1294 4750 2059 4750 
Q 2388 4750 2728 4690 
Q 3069 4631 3425 4513 
z
" transform="scale(0.015625)"/>
      </defs>
      <use xlink:href="#DejaVuSans-69"/>
      <use xlink:href="#DejaVuSans-47" x="27.783203"/>
      <use xlink:href="#DejaVuSans-6c" x="105.273438"/>
      <use xlink:href="#DejaVuSans-75" x="133.056641"/>
      <use xlink:href="#DejaVuSans-53" x="196.435547"/>
      <use xlink:href="#DejaVuSans-6e" x="259.912109"/>
      <use xlink:href="#DejaVuSans-46" x="323.291016"/>
      <use xlink:href="#DejaVuSans-52" x="380.810547"/>
     </g>
    </g>
    <g id="line2d_55">
     <path d="M 469.468594 444.024062 
L 479.468594 444.024062 
L 489.468594 444.024062 
" style="fill: none; stroke: #ff7f0e; stroke-opacity: 0.75; stroke-width: 1.5; stroke-linecap: square"/>
    </g>
    <g id="text_31">
     <!-- Quantal Sum -->
     <g transform="translate(497.468594 447.524062)scale(0.1 -0.1)">
      <use xlink:href="#DejaVuSans-51"/>
      <use xlink:href="#DejaVuSans-75" x="78.710938"/>
      <use xlink:href="#DejaVuSans-61" x="142.089844"/>
      <use xlink:href="#DejaVuSans-6e" x="203.369141"/>
      <use xlink:href="#DejaVuSans-74" x="266.748047"/>
      <use xlink:href="#DejaVuSans-61" x="305.957031"/>
      <use xlink:href="#DejaVuSans-6c" x="367.236328"/>
      <use xlink:href="#DejaVuSans-20" x="395.019531"/>
      <use xlink:href="#DejaVuSans-53" x="426.806641"/>
      <use xlink:href="#DejaVuSans-75" x="490.283203"/>
      <use xlink:href="#DejaVuSans-6d" x="553.662109"/>
     </g>
    </g>
   </g>
  </g>
  <g id="axes_5">
   <g id="patch_15">
    <path d="M 113.330844 43.1175 
L 267.845844 43.1175 
L 267.845844 7.2 
L 113.330844 7.2 
z
" style="fill: #ffffff"/>
   </g>
   <g id="matplotlib.axis_9">
    <g id="xtick_33">
     <g id="line2d_56">
      <g>
       <use xlink:href="#md582e387b2" x="113.330844" y="43.1175" style="stroke: #000000; stroke-width: 0.8"/>
      </g>
     </g>
     <g id="text_32">
      <!-- 0.00 -->
      <g transform="translate(101.08475 58.475781)scale(0.11 -0.11)">
       <use xlink:href="#DejaVuSans-30"/>
       <use xlink:href="#DejaVuSans-2e" x="63.623047"/>
       <use xlink:href="#DejaVuSans-30" x="95.410156"/>
       <use xlink:href="#DejaVuSans-30" x="159.033203"/>
      </g>
     </g>
    </g>
    <g id="xtick_34">
     <g id="line2d_57">
      <g>
       <use xlink:href="#md582e387b2" x="164.835844" y="43.1175" style="stroke: #000000; stroke-width: 0.8"/>
      </g>
     </g>
     <g id="text_33">
      <!-- 0.05 -->
      <g transform="translate(152.58975 58.475781)scale(0.11 -0.11)">
       <use xlink:href="#DejaVuSans-30"/>
       <use xlink:href="#DejaVuSans-2e" x="63.623047"/>
       <use xlink:href="#DejaVuSans-30" x="95.410156"/>
       <use xlink:href="#DejaVuSans-35" x="159.033203"/>
      </g>
     </g>
    </g>
    <g id="xtick_35">
     <g id="line2d_58">
      <g>
       <use xlink:href="#md582e387b2" x="216.340844" y="43.1175" style="stroke: #000000; stroke-width: 0.8"/>
      </g>
     </g>
     <g id="text_34">
      <!-- 0.10 -->
      <g transform="translate(204.09475 58.475781)scale(0.11 -0.11)">
       <use xlink:href="#DejaVuSans-30"/>
       <use xlink:href="#DejaVuSans-2e" x="63.623047"/>
       <use xlink:href="#DejaVuSans-31" x="95.410156"/>
       <use xlink:href="#DejaVuSans-30" x="159.033203"/>
      </g>
     </g>
    </g>
    <g id="xtick_36">
     <g id="line2d_59">
      <g>
       <use xlink:href="#md582e387b2" x="267.845844" y="43.1175" style="stroke: #000000; stroke-width: 0.8"/>
      </g>
     </g>
     <g id="text_35">
      <!-- 0.15 -->
      <g transform="translate(255.59975 58.475781)scale(0.11 -0.11)">
       <use xlink:href="#DejaVuSans-30"/>
       <use xlink:href="#DejaVuSans-2e" x="63.623047"/>
       <use xlink:href="#DejaVuSans-31" x="95.410156"/>
       <use xlink:href="#DejaVuSans-35" x="159.033203"/>
      </g>
     </g>
    </g>
   </g>
   <g id="matplotlib.axis_10">
    <g id="ytick_17">
     <g id="line2d_60">
      <g>
       <use xlink:href="#mef86bbe14e" x="113.330844" y="41.484886" style="stroke: #000000; stroke-width: 0.8"/>
      </g>
     </g>
     <g id="text_36">
      <!-- 0.0 -->
      <g transform="translate(88.837406 45.664027)scale(0.11 -0.11)">
       <use xlink:href="#DejaVuSans-30"/>
       <use xlink:href="#DejaVuSans-2e" x="63.623047"/>
       <use xlink:href="#DejaVuSans-30" x="95.410156"/>
      </g>
     </g>
    </g>
    <g id="ytick_18">
     <g id="line2d_61">
      <g>
       <use xlink:href="#mef86bbe14e" x="113.330844" y="17.558193" style="stroke: #000000; stroke-width: 0.8"/>
      </g>
     </g>
     <g id="text_37">
      <!-- 0.1 -->
      <g transform="translate(88.837406 21.737334)scale(0.11 -0.11)">
       <use xlink:href="#DejaVuSans-30"/>
       <use xlink:href="#DejaVuSans-2e" x="63.623047"/>
       <use xlink:href="#DejaVuSans-31" x="95.410156"/>
      </g>
     </g>
    </g>
   </g>
   <g id="line2d_62">
    <path d="M 113.330844 41.484886 
L 131.014964 8.832614 
L 148.699084 23.054514 
L 166.383204 31.085424 
L 184.067324 35.616921 
L 201.751445 38.173848 
L 219.435565 39.616611 
L 237.119685 40.430699 
L 254.803805 40.890054 
L 272.487925 41.149249 
L 290.172045 41.295501 
L 307.856166 41.378025 
L 325.540286 41.424589 
L 343.224406 41.450863 
L 360.908526 41.465688 
L 378.592646 41.474054 
L 396.276766 41.478774 
L 413.960887 41.481437 
L 431.645007 41.482939 
L 449.329127 41.483788 
L 467.013247 41.484266 
L 484.697367 41.484537 
L 502.381488 41.484689 
L 520.065608 41.484775 
L 537.749728 41.484823 
L 555.433848 41.484851 
L 573.117968 41.484866 
L 579.774844 41.484869 
" clip-path="url(#p77d8c6e624)" style="fill: none; stroke: #1f77b4; stroke-width: 1.5; stroke-linecap: square"/>
   </g>
   <g id="patch_16">
    <path d="M 113.330844 43.1175 
L 113.330844 7.2 
" style="fill: none; stroke: #000000; stroke-width: 0.8; stroke-linejoin: miter; stroke-linecap: square"/>
   </g>
   <g id="patch_17">
    <path d="M 113.330844 43.1175 
L 267.845844 43.1175 
" style="fill: none; stroke: #000000; stroke-width: 0.8; stroke-linejoin: miter; stroke-linecap: square"/>
   </g>
   <g id="text_38">
    <!-- iGluSnfr Quanta -->
    <g transform="translate(180.259156 16.594313)scale(0.1 -0.1)">
     <defs>
      <path id="DejaVuSans-72" d="M 2631 2963 
Q 2534 3019 2420 3045 
Q 2306 3072 2169 3072 
Q 1681 3072 1420 2755 
Q 1159 2438 1159 1844 
L 1159 0 
L 581 0 
L 581 3500 
L 1159 3500 
L 1159 2956 
Q 1341 3275 1631 3429 
Q 1922 3584 2338 3584 
Q 2397 3584 2469 3576 
Q 2541 3569 2628 3553 
L 2631 2963 
z
" transform="scale(0.015625)"/>
     </defs>
     <use xlink:href="#DejaVuSans-69"/>
     <use xlink:href="#DejaVuSans-47" x="27.783203"/>
     <use xlink:href="#DejaVuSans-6c" x="105.273438"/>
     <use xlink:href="#DejaVuSans-75" x="133.056641"/>
     <use xlink:href="#DejaVuSans-53" x="196.435547"/>
     <use xlink:href="#DejaVuSans-6e" x="259.912109"/>
     <use xlink:href="#DejaVuSans-66" x="323.291016"/>
     <use xlink:href="#DejaVuSans-72" x="358.496094"/>
     <use xlink:href="#DejaVuSans-20" x="399.609375"/>
     <use xlink:href="#DejaVuSans-51" x="431.396484"/>
     <use xlink:href="#DejaVuSans-75" x="510.107422"/>
     <use xlink:href="#DejaVuSans-61" x="573.486328"/>
     <use xlink:href="#DejaVuSans-6e" x="634.765625"/>
     <use xlink:href="#DejaVuSans-74" x="698.144531"/>
     <use xlink:href="#DejaVuSans-61" x="737.353516"/>
    </g>
   </g>
  </g>
 </g>
 <defs>
  <clipPath id="p67b29000ce">
   <rect x="56.524844" y="14.1725" width="515.05" height="119.725"/>
  </clipPath>
  <clipPath id="p8901a29c3a">
   <rect x="56.524844" y="148.1975" width="515.05" height="119.725"/>
  </clipPath>
  <clipPath id="pd3a75e63f2">
   <rect x="56.524844" y="282.2225" width="515.05" height="119.725"/>
  </clipPath>
  <clipPath id="p4a622d2687">
   <rect x="56.524844" y="416.2475" width="515.05" height="119.725"/>
  </clipPath>
  <clipPath id="p77d8c6e624">
   <rect x="113.330844" y="7.2" width="154.515" height="35.9175"/>
  </clipPath>
 </defs>
</svg>
